<svg width="22" height="22" viewBox="0 0 22 22" fill="none" xmlns="http://www.w3.org/2000/svg">
<path d="M6.91992 9.31992C6.91992 8.6834 7.17278 8.07295 7.62287 7.62287C8.07295 7.17278 8.6834 6.91992 9.31992 6.91992H18.9199C19.5564 6.91992 20.1669 7.17278 20.617 7.62287C21.0671 8.07295 21.3199 8.6834 21.3199 9.31992V18.9199C21.3199 19.5564 21.0671 20.1669 20.617 20.617C20.1669 21.0671 19.5564 21.3199 18.9199 21.3199H9.31992C8.6834 21.3199 8.07295 21.0671 7.62287 20.617C7.17278 20.1669 6.91992 19.5564 6.91992 18.9199V9.31992Z" stroke="white" stroke-linecap="round" stroke-linejoin="round"/>
<path d="M15.3199 5.71992V3.31992C15.3199 2.6834 15.0671 2.07295 14.617 1.62287C14.1669 1.17278 13.5564 0.919922 12.9199 0.919922H3.31992C2.6834 0.919922 2.07295 1.17278 1.62287 1.62287C1.17278 2.07295 0.919922 2.6834 0.919922 3.31992V12.9199C0.919922 13.5564 1.17278 14.1669 1.62287 14.617C2.07295 15.0671 2.6834 15.3199 3.31992 15.3199H5.71992" stroke="white" stroke-linecap="round" stroke-linejoin="round"/>
</svg>
