<svg width="90" height="90" viewBox="0 0 90 90" fill="none" xmlns="http://www.w3.org/2000/svg">
<circle opacity="0.3" cx="45" cy="45" r="45" fill="url(#paint0_radial_405_4166)"/>
<circle cx="45" cy="45" r="39" fill="url(#paint1_radial_405_4166)"/>
<g clip-path="url(#clip0_405_4166)">
<path d="M27 45C27 47.3638 27.4656 49.7044 28.3702 51.8883C29.2748 54.0722 30.6006 56.0565 32.2721 57.7279C33.9435 59.3994 35.9278 60.7252 38.1117 61.6298C40.2956 62.5344 42.6362 63 45 63C47.3638 63 49.7044 62.5344 51.8883 61.6298C54.0722 60.7252 56.0565 59.3994 57.7279 57.7279C59.3994 56.0565 60.7252 54.0722 61.6298 51.8883C62.5344 49.7044 63 47.3638 63 45C63 42.6362 62.5344 40.2956 61.6298 38.1117C60.7252 35.9278 59.3994 33.9435 57.7279 32.2721C56.0565 30.6006 54.0722 29.2748 51.8883 28.3702C49.7044 27.4656 47.3638 27 45 27C42.6362 27 40.2956 27.4656 38.1117 28.3702C35.9278 29.2748 33.9435 30.6006 32.2721 32.2721C30.6006 33.9435 29.2748 35.9278 28.3702 38.1117C27.4656 40.2956 27 42.6362 27 45Z" stroke="white" stroke-width="3.5" stroke-linecap="round" stroke-linejoin="round"/>
<path d="M45 37H45.03" stroke="white" stroke-width="3.5" stroke-linecap="round" stroke-linejoin="round"/>
<path d="M43 45H45V53H47" stroke="white" stroke-width="3.5" stroke-linecap="round" stroke-linejoin="round"/>
</g>
<defs>
<radialGradient id="paint0_radial_405_4166" cx="0" cy="0" r="1" gradientUnits="userSpaceOnUse" gradientTransform="translate(-1377.1 -2585.34) scale(10129.7 8533.74)">
<stop stop-color="#FF0000"/>
<stop offset="1" stop-color="#868686"/>
</radialGradient>
<radialGradient id="paint1_radial_405_4166" cx="0" cy="0" r="1" gradientUnits="userSpaceOnUse" gradientTransform="translate(-1187.48 -2234.63) scale(8779.05 7395.91)">
<stop stop-color="#FF0000"/>
<stop offset="1" stop-color="#868686"/>
</radialGradient>
<clipPath id="clip0_405_4166">
<rect width="48" height="48" fill="white" transform="translate(21 21)"/>
</clipPath>
</defs>
</svg>
