<svg width="90" height="90" viewBox="0 0 90 90" fill="none" xmlns="http://www.w3.org/2000/svg">
<ellipse opacity="0.3" cx="45" cy="45.0834" rx="45" ry="44.4643" fill="#02BCFC"/>
<ellipse cx="45" cy="45.0836" rx="39" ry="38.5357" fill="#02BCFC"/>
<path d="M54.18 36.3484L41 49.3715L33.82 42.2968L31 45.0832L41 54.9641L57 39.1546L54.18 36.3484ZM45 25.3213C33.96 25.3213 25 34.1746 25 45.0832C25 55.9918 33.96 64.8451 45 64.8451C56.04 64.8451 65 55.9918 65 45.0832C65 34.1746 56.04 25.3213 45 25.3213ZM45 60.8927C36.16 60.8927 29 53.818 29 45.0832C29 36.3484 36.16 29.2737 45 29.2737C53.84 29.2737 61 36.3484 61 45.0832C61 53.818 53.84 60.8927 45 60.8927Z" fill="white"/>
</svg>
