<svg width="42" height="69" viewBox="0 0 42 69" fill="none" xmlns="http://www.w3.org/2000/svg">
<path d="M20.904 0.0319996C25 0.0319996 28.616 0.831999 31.752 2.432C34.952 4.032 37.416 6.336 39.144 9.344C40.936 12.288 41.832 15.712 41.832 19.616C41.832 26.528 39.688 31.616 35.4 34.88C31.176 38.08 25.384 39.68 18.024 39.68L17.736 50.24H11.976L11.592 34.88H14.088C20.68 34.88 25.864 33.856 29.64 31.808C33.48 29.696 35.4 25.632 35.4 19.616C35.4 15.392 34.056 12.032 31.368 9.536C28.744 7.04 25.256 5.792 20.904 5.792C16.552 5.792 13.096 6.976 10.536 9.344C7.976 11.712 6.696 14.944 6.696 19.04H0.264C0.264 15.2 1.128 11.872 2.856 9.056C4.648 6.176 7.08 3.968 10.152 2.432C13.288 0.831999 16.872 0.0319996 20.904 0.0319996ZM14.856 68.48C13.448 68.48 12.264 68 11.304 67.04C10.408 66.08 9.96 64.896 9.96 63.488C9.96 62.08 10.408 60.928 11.304 60.032C12.264 59.072 13.448 58.592 14.856 58.592C16.2 58.592 17.32 59.072 18.216 60.032C19.176 60.928 19.656 62.08 19.656 63.488C19.656 64.896 19.176 66.08 18.216 67.04C17.32 68 16.2 68.48 14.856 68.48Z" fill="white"/>
</svg>
