<svg width="78" height="78" viewBox="0 0 78 78" fill="none" xmlns="http://www.w3.org/2000/svg">
<ellipse opacity="0.3" cx="39" cy="38.5357" rx="39" ry="38.5357" fill="#02BCFC"/>
<ellipse cx="39" cy="38.5358" rx="33.8" ry="33.3976" fill="#02BCFC"/>
<path d="M47.2482 31.4992V26.4728C47.2482 26.0285 47.0717 25.6023 46.7575 25.2881C46.4433 24.9739 46.0171 24.7974 45.5728 24.7974H28.8181C27.9294 24.7974 27.077 25.1504 26.4486 25.7788C25.8202 26.4072 25.4672 27.2596 25.4672 28.1483M25.4672 28.1483C25.4672 29.037 25.8202 29.8893 26.4486 30.5178C27.077 31.1462 27.9294 31.4992 28.8181 31.4992H48.9237C49.368 31.4992 49.7942 31.6757 50.1084 31.99C50.4226 32.3042 50.5992 32.7303 50.5992 33.1747V38.2011M25.4672 28.1483V48.2539C25.4672 49.1426 25.8202 49.9949 26.4486 50.6234C27.077 51.2518 27.9294 51.6048 28.8181 51.6048H48.9237C49.368 51.6048 49.7942 51.4283 50.1084 51.1141C50.4226 50.7999 50.5992 50.3737 50.5992 49.9294V44.903" stroke="white" stroke-width="2.68075" stroke-linecap="round" stroke-linejoin="round"/>
<path d="M52.2747 38.2012V44.903H45.5729C44.6841 44.903 43.8318 44.55 43.2034 43.9216C42.575 43.2931 42.2219 42.4408 42.2219 41.5521C42.2219 40.6634 42.575 39.8111 43.2034 39.1826C43.8318 38.5542 44.6841 38.2012 45.5729 38.2012H52.2747Z" stroke="white" stroke-width="2.68075" stroke-linecap="round" stroke-linejoin="round"/>
</svg>
