<svg width="50" height="50" viewBox="0 0 50 50" fill="none" xmlns="http://www.w3.org/2000/svg">
<path d="M49.9998 25C49.9998 26.4606 49.8735 27.8937 49.6319 29.2829C49.5001 30.0296 49.3409 30.7654 49.1487 31.4902C48.0835 35.4656 46.0629 39.0457 43.3504 41.9778C42.3675 43.043 41.2913 44.0204 40.1327 44.899C39.0675 45.7116 37.9309 46.4419 36.7393 47.0788C35.125 47.9409 33.4064 48.6273 31.6054 49.1215C29.5024 49.698 27.2895 50 25.0053 50C23.9566 50 22.9243 49.9341 21.914 49.8078C13.447 48.7646 6.28693 43.4823 2.63001 36.152C1.20238 33.2967 0.307375 30.134 0.0712673 26.79C0.0273403 26.197 0.00537109 25.5985 0.00537109 25C0.00537109 21.2278 0.839988 17.6532 2.33351 14.4465C3.66779 11.5803 5.53469 9.01054 7.79693 6.86361C9.88895 4.87591 12.3269 3.24511 15.0119 2.07555C18.0704 0.74127 21.4527 0 24.9998 0C35.7784 0 44.9647 6.81968 48.4733 16.3848C49.3464 18.7678 49.868 21.3156 49.9779 23.9787C49.9943 24.3136 49.9998 24.6541 49.9998 25Z" fill="url(#paint0_radial_257_654)"/>
<path d="M2.62467 36.1522C2.45445 35.8118 2.28973 35.4604 2.13598 35.109C0.99937 32.5447 0.285558 29.7608 0.0714142 26.8342C0.0714142 26.8177 0.0714088 26.8067 0.065918 26.7903C0.571079 26.7244 1.26293 26.955 1.76809 28.3771C2.42151 30.2276 5.46345 34.7356 2.62467 36.1522Z" fill="#F79C41"/>
<path d="M22.2601 31.9022C22.2272 32.1054 22.1558 32.2975 22.0515 32.4732C21.2553 33.9009 18.4824 34.6037 15.391 34.0711C12.7005 33.6044 10.5535 32.3305 9.86169 30.9468C9.65853 30.5404 9.58166 30.1286 9.65305 29.7168C9.96603 27.9158 12.9915 27.482 16.4727 28.0915C19.9539 28.69 22.5731 30.1012 22.2601 31.9022Z" fill="#F79C41"/>
<path d="M14.8526 19.9981L14.8471 20.0036C14.1553 21.0469 11.9974 20.0915 9.48805 18.4497C7.43995 17.1099 5.97937 15.7756 5.88054 14.7598C5.85857 14.5292 5.908 14.3096 6.03429 14.1119C6.72614 13.0576 9.47158 12.9862 11.9864 14.6335C14.5012 16.2808 15.5445 18.9439 14.8526 19.9981Z" fill="#F79C41"/>
<path d="M42.5487 35.3945C40.5225 37.0857 38.0955 37.5195 37.1346 36.3609C37.0852 36.3005 37.0413 36.2401 37.0029 36.1742C36.2671 34.9717 37.1456 32.8138 39.0674 31.2159C41.0222 29.5851 43.3448 29.1239 44.3716 30.1287C44.4101 30.1672 44.4485 30.2056 44.4814 30.244C45.4423 31.4026 44.5803 33.7088 42.5487 35.3945Z" fill="#F79C41"/>
<path d="M27.9319 21.5301C25.8838 23.1499 23.8028 24.0449 22.6112 22.5404C22.4959 22.3976 22.4026 22.2439 22.3202 22.0792C21.5625 20.5527 22.3092 18.3399 24.1652 16.8738C26.2133 15.254 29.0081 14.4907 30.9135 16.9012C30.9244 16.9177 30.9409 16.9342 30.9464 16.9507C32.0665 18.4387 29.9635 19.9267 27.9319 21.5301Z" fill="#F79C41"/>
<path d="M19.7506 44.1524C19.4541 44.4379 18.8666 44.5972 17.9441 44.5533C14.5617 44.405 10.8883 40.2868 11.9151 38.9635C11.9316 38.9416 11.9481 38.9251 11.9645 38.9086C13.0298 37.7061 15.6983 39.8695 17.0601 40.5833C19.3058 41.7584 20.5358 43.4002 19.7506 44.1524Z" fill="#F79C41"/>
<path d="M33.0165 41.1159C33.022 41.8956 31.9623 42.7192 30.293 42.7906C27.2401 42.9224 25.4995 42.3349 25.0877 41.2477C25.0437 41.1324 25.0163 41.0116 24.9998 40.8798C24.8516 39.5565 27.6464 39.7816 29.118 39.7047C31.8799 39.5565 33.011 40.3142 33.0165 41.1159Z" fill="#F79C41"/>
<path d="M42.269 23.5726C41.934 24.0722 41.2861 24.4127 40.446 24.4127C37.7994 24.4127 34.2687 22.5018 34.7135 20.7338C34.7629 20.5306 34.8398 20.3549 34.9277 20.2121C35.6085 19.114 37.3272 19.6466 38.9799 19.998C42.2854 20.7008 42.9938 22.5018 42.269 23.5726Z" fill="#F79C41"/>
<path d="M33.6758 10.5865C33.6428 10.5096 33.6264 10.4218 33.6154 10.3284C33.5495 9.57618 34.2908 8.478 35.7349 8.08266C36.6738 7.82459 37.9422 7.85753 38.7274 8.34073C39.0733 8.55487 39.3204 8.85138 39.4137 9.25771C39.6334 10.268 34.1425 11.7561 33.6758 10.5865Z" fill="#F79C41"/>
<path d="M18.5868 8.24763C18.4001 8.35745 18.1805 8.32451 17.9444 8.0884C16.3245 6.46859 16.1818 3.82198 17.0603 3.38271C17.4063 3.207 17.7083 3.15209 17.9663 3.17955C19.7234 3.37722 19.5312 7.67658 18.5868 8.24763Z" fill="#F79C41"/>
<path d="M46.3208 17.4997C46.2055 17.5546 46.0682 17.5656 45.9199 17.5272C45.305 17.3679 44.5033 16.4235 44.2617 15.0014C44.1244 14.1668 44.5417 13.3651 45.0853 13.1125C45.6893 12.827 46.4526 13.2223 46.7601 15.0014C46.9413 16.0117 46.9138 17.2032 46.3208 17.4997Z" fill="#F79C41"/>
<path d="M43.3506 41.9781C41.4562 44.0262 39.2214 45.7558 36.7396 47.0736C36.4595 46.9364 36.2069 46.7332 36.1081 46.4422C36.0203 46.1841 36.0587 45.8547 36.3277 45.4374C37.3545 43.8176 38.3868 41.3192 40.7369 41.1709C41.4233 41.127 41.9669 41.2094 42.4006 41.3631C42.818 41.5169 43.1254 41.7365 43.3506 41.9781Z" fill="#F79C41"/>
<path d="M31.6001 49.116C29.4971 49.6926 27.2843 49.9946 25.0001 49.9946C23.9513 49.9946 22.919 49.9287 21.9087 49.8024C21.9087 49.5059 21.9636 49.1874 22.1448 48.9184C22.3205 48.6603 22.6115 48.4516 23.0892 48.3748C24.8518 48.0782 25.7358 46.9032 28.2342 47.0514C29.53 47.1283 30.436 47.7598 31.0016 48.3473C31.2816 48.6438 31.4738 48.9184 31.6001 49.116Z" fill="#F79C41"/>
<path d="M28.404 3.56367C28.2777 4.18963 27.2179 4.41476 26.7073 4.17865C26.5975 4.12923 26.5151 4.05785 26.4712 3.96999C26.1747 3.38247 28.1129 2.28429 28.382 3.23422C28.4149 3.35502 28.4204 3.46483 28.404 3.56367Z" fill="#F79C41"/>
<path d="M20.7389 36.6131C20.08 36.2837 19.5639 36.0256 19.7121 37.3489C19.8604 38.6722 20.8872 38.9687 21.7712 38.9687C22.6497 38.9687 21.3264 36.9096 20.7389 36.6131Z" fill="#EF903A"/>
<path d="M8.53285 35.7345C7.94533 35.5862 7.94533 36.6185 7.50606 37.6453C7.06679 38.6721 7.65431 39.4079 8.53285 39.4079C9.41688 39.4079 9.7079 36.0255 8.53285 35.7345Z" fill="#EF903A"/>
<path d="M5.88605 22.4958C5.32049 22.2378 4.711 21.9083 4.56275 22.4958C4.4145 23.0834 5.7378 24.7032 6.47357 24.7032C7.20935 24.7032 7.50037 23.2316 5.88605 22.4958Z" fill="#EF903A"/>
<path d="M50.0001 24.9999C50.0001 26.4605 49.8738 27.8936 49.6322 29.2828C49.4181 29.2004 49.1985 29.0522 48.9678 28.8215C47.4963 27.35 48.6109 25.2634 48.9678 24.5551C49.3632 23.7644 49.7585 23.8358 49.9782 23.9731C49.9946 24.3135 50.0001 24.654 50.0001 24.9999Z" fill="#EF903A"/>
<path d="M34.856 26.614C34.005 26.5097 33.5327 27.2016 34.856 27.7891C36.1793 28.3821 36.0311 26.7623 34.856 26.614Z" fill="#EF903A"/>
<path d="M3.23968 19.9976C2.84433 20.1953 2.80041 21.0244 3.8272 20.8817C4.854 20.7334 4.11822 19.5584 3.23968 19.9976Z" fill="#EF903A"/>
<path d="M24.1216 9.70755C23.6823 9.85581 23.0948 10.2951 24.1216 10.4433C25.1484 10.5861 24.5609 9.5593 24.1216 9.70755Z" fill="#EF903A"/>
<path d="M26.6197 9.7078C26.0816 9.39482 26.0322 10.8829 26.4714 11.4704C26.9107 12.0579 28.3823 10.7346 26.6197 9.7078Z" fill="#EF903A"/>
<path d="M31.3253 44.5582C31.0069 44.6296 30.8861 45.1458 31.7646 45.4423C32.6486 45.7333 32.6486 44.2617 31.3253 44.5582Z" fill="#EF903A"/>
<path d="M18.532 47.0569C18.0927 47.2052 17.648 47.4962 18.532 47.7927C19.416 48.0837 18.9713 46.9087 18.532 47.0569Z" fill="#EF903A"/>
<path d="M19.2677 25.4392C18.5209 25.4777 20.1517 26.466 20.591 26.6143C21.0303 26.7625 22.3536 25.291 19.2677 25.4392Z" fill="#EF903A"/>
<path d="M43.3836 21.6172C43.0157 21.9027 43.6801 23.528 44.2676 23.3798C44.8551 23.2315 44.7069 20.5849 43.3836 21.6172Z" fill="#EF903A"/>
<path d="M31.5562 31.9243C31.4903 32.1769 31.408 32.424 31.3256 32.6436C30.8973 33.7912 28.366 34.2414 27.6961 33.7143C27.6796 33.7033 27.6632 33.6869 27.6467 33.6704C27.0592 33.0829 27.6302 31.6058 27.9432 30.8755C28.3825 29.8487 30.5898 29.113 31.3256 29.404C31.9186 29.6511 31.8417 30.8536 31.5562 31.9243Z" fill="#F79C41"/>
<path d="M5.88054 14.7652C5.85857 14.5346 5.908 14.3149 6.03429 14.1173C6.72614 13.063 9.47158 12.9916 11.9864 14.6389C14.5012 16.2862 15.5445 18.9492 14.8526 20.0035L14.8471 20.009C14.8856 19.3665 14.6165 18.466 13.6776 17.2086C11.2287 13.9415 6.76457 12.8159 5.88054 14.7652Z" fill="#E27C37"/>
<path d="M22.2601 31.9023C22.2272 32.1055 22.1558 32.2977 22.0515 32.4734C21.9911 32.2208 21.4475 30.2386 18.9711 29.4094C16.4013 28.5529 12.9421 27.7896 10.883 29.4094C10.2241 29.9256 9.94406 30.4582 9.86169 30.9414C9.65853 30.5351 9.58166 30.1233 9.65305 29.7114C9.96603 27.9104 12.9915 27.4767 16.4727 28.0861C19.9539 28.6901 22.5731 30.1013 22.2601 31.9023Z" fill="#E27C37"/>
<path d="M26.3231 16.4675C23.5886 17.4119 22.4355 20.0915 22.3202 22.0792C21.5625 20.5527 22.3092 18.3399 24.1652 16.8738C26.2133 15.254 29.0081 14.4907 30.9135 16.9012C30.9244 16.9177 30.9409 16.9342 30.9464 16.9507C30.1228 16.3137 28.6237 15.6768 26.3231 16.4675Z" fill="#E27C37"/>
<path d="M31.5561 31.9243C31.5286 30.8591 31.2651 29.6566 30.1504 29.997C29.0083 30.3484 27.7125 32.4185 27.7015 33.7143C27.685 33.7033 27.6685 33.6869 27.6521 33.6704C27.0645 33.0829 27.6356 31.6058 27.9486 30.8755C28.3879 29.8487 30.5952 29.113 31.331 29.404C31.9185 29.6511 31.8416 30.8536 31.5561 31.9243Z" fill="#E27C37"/>
<path d="M42.2687 23.5726C42.6036 21.6343 39.4958 21.0083 37.9419 20.4427C36.4044 19.8827 35.3502 20.0804 34.9219 20.2121C35.6027 19.114 37.3214 19.6466 38.9741 19.998C42.2851 20.7008 42.9935 22.5018 42.2687 23.5726Z" fill="#E27C37"/>
<path d="M33.6756 10.5865C33.6427 10.5096 33.6262 10.4217 33.6152 10.3284C34.5432 10.9434 36.9207 10.4437 38.2331 9.85069C39.172 9.4224 39.0183 8.79644 38.7272 8.34619C39.0732 8.56034 39.3203 8.85684 39.4136 9.26317C39.6332 10.268 34.1424 11.756 33.6756 10.5865Z" fill="#E27C37"/>
<path d="M18.5868 8.24763C18.4001 8.35745 18.1805 8.32451 17.9444 8.0884C16.3245 6.46859 16.1818 3.82198 17.0603 3.38271C17.4063 3.207 17.7083 3.15209 17.9663 3.17955C17.6094 3.24544 17.0603 3.55842 17.0603 4.85427C17.0603 6.34779 17.7796 7.57225 18.5868 8.24763Z" fill="#E27C37"/>
<path d="M28.404 3.56367C28.3546 3.31109 28.1569 3.06949 27.5035 3.23422C26.9709 3.366 26.7677 3.77232 26.7073 4.17865C26.5975 4.12923 26.5151 4.05785 26.4712 3.96999C26.1747 3.38247 28.1129 2.28429 28.382 3.23422C28.4149 3.35502 28.4204 3.46483 28.404 3.56367Z" fill="#E27C37"/>
<path d="M19.7504 44.1524C19.6241 43.3617 18.8993 42.593 17.6474 41.9066C16.0276 41.0226 14.8526 40.1441 13.8258 39.4083C13.2877 39.0239 12.5464 38.9196 11.9644 38.9086C13.0296 37.7061 15.6982 39.8695 17.0599 40.5833C19.3057 41.7584 20.5356 43.4002 19.7504 44.1524Z" fill="#E27C37"/>
<path d="M33.0165 41.1157C32.7804 40.5282 32.0666 40.2866 30.8806 40.2866H26.7624C25.1865 40.2866 25.0877 41.1981 25.0877 41.242C25.0437 41.1267 25.0163 41.0059 24.9998 40.8741C24.8516 39.5508 27.6464 39.7759 29.118 39.6991C31.8799 39.5563 33.011 40.314 33.0165 41.1157Z" fill="#E27C37"/>
<path d="M31.0016 48.353C31.2816 48.6386 31.4738 48.9186 31.6001 49.1163C29.4971 49.6928 27.2843 49.9948 25.0001 49.9948C23.9513 49.9948 22.919 49.9289 21.9087 49.8026C21.9087 49.5061 21.9636 49.1876 22.1448 48.9186C27.0317 50.0717 29.8485 49.001 31.0016 48.353Z" fill="#E27C37"/>
<path d="M43.3504 41.9781C41.456 44.0262 39.2212 45.7559 36.7394 47.0737C36.4593 46.9364 36.2067 46.7332 36.1079 46.4422C40.2096 44.9048 41.9831 42.1209 42.4005 41.3687C42.8178 41.5169 43.1253 41.7365 43.3504 41.9781Z" fill="#E27C37"/>
<path d="M44.3716 30.1289C44.0422 30.0136 41.6976 29.3601 38.9686 32.4954C37.5904 34.0823 37.1127 35.3123 37.0029 36.1743C36.2671 34.9718 37.1456 32.8139 39.0674 31.2161C41.0222 29.5908 43.3448 29.124 44.3716 30.1289Z" fill="#E27C37"/>
<path d="M45.9199 17.5216C45.305 17.3624 44.5033 16.4179 44.2617 14.9958C44.1244 14.1612 44.5417 13.3595 45.0853 13.1069C44.8492 13.4199 44.6296 13.8976 44.701 14.5565C44.8273 15.6218 45.2281 16.687 45.9199 17.5216Z" fill="#E27C37"/>
<path d="M2.62467 36.1522C2.45445 35.8118 2.28973 35.4604 2.13598 35.109C2.83881 34.472 3.53067 33.3079 2.65213 31.4685C1.56493 29.1898 1.03781 27.2295 0.0714142 26.8342C0.0714142 26.8177 0.0714088 26.8067 0.065918 26.7903C0.571079 26.7244 1.26293 26.955 1.76809 28.3771C2.42151 30.2276 5.46345 34.7356 2.62467 36.1522Z" fill="#E27C37"/>
<path opacity="0.35" d="M50 24.9999C50 26.4605 49.8737 27.8936 49.6321 29.2828C48.792 34.1367 46.5517 38.513 43.345 41.9777C41.4506 44.0258 39.2159 45.7554 36.734 47.0732C35.1197 47.9353 33.401 48.6217 31.6 49.1159C29.497 49.6924 27.2842 49.9944 25 49.9944C23.9512 49.9944 22.9189 49.9285 21.9086 49.8022C13.4417 48.7589 6.28157 43.4767 2.62464 36.1464C1.19701 33.2911 0.301996 30.1284 0.0658879 26.7844C0.0219608 26.1914 0 25.5929 0 24.9944C0 21.2222 0.834617 17.6476 2.32814 14.4409C2.56973 36.0915 47.2765 41.5329 48.4735 16.3737C49.3465 18.7568 49.8682 21.3045 49.978 23.9676C49.9945 24.3135 50 24.654 50 24.9999Z" fill="url(#paint1_linear_257_654)"/>
<path opacity="0.45" d="M40.1327 44.8991C39.0675 45.7118 37.9309 46.4421 36.7393 47.079C35.125 47.9411 33.4064 48.6274 31.6054 49.1216C29.5024 49.6982 27.2895 50.0002 25.0053 50.0002C23.9566 50.0002 22.9243 49.9343 21.914 49.808C13.447 48.7647 6.28694 43.4825 2.63001 36.1522C1.20238 33.2969 0.307375 30.1341 0.0712673 26.7902C0.0273403 26.1972 0.00537109 25.5987 0.00537109 25.0002C0.00537109 21.2279 0.839988 17.6534 2.33351 14.4467C3.66779 11.5804 5.53469 9.01071 7.79693 6.86377C0.823514 40.1221 26.4714 44.7289 40.1327 44.8991Z" fill="url(#paint2_linear_257_654)"/>
<path d="M50.0001 25C50.0001 26.4606 49.8738 27.8937 49.6322 29.2829C49.5004 30.0296 49.3412 30.7654 49.149 31.4902C48.2814 11.3826 34.6641 -0.0494175 15.0122 2.07555C18.0706 0.74127 21.453 0 25.0001 0C35.7787 0 44.9649 6.81968 48.4736 16.3848C49.3467 18.7678 49.8683 21.3156 49.9781 23.9787C49.9946 24.3136 50.0001 24.6541 50.0001 25Z" fill="url(#paint3_linear_257_654)"/>
<defs>
<radialGradient id="paint0_radial_257_654" cx="0" cy="0" r="1" gradientUnits="userSpaceOnUse" gradientTransform="translate(23.8985 11.7646) scale(38.173 38.173)">
<stop stop-color="#FFE46A"/>
<stop offset="1" stop-color="#FFA44A"/>
</radialGradient>
<linearGradient id="paint1_linear_257_654" x1="3.64743" y1="38.2131" x2="47.8587" y2="17.5289" gradientUnits="userSpaceOnUse">
<stop stop-color="#E27437"/>
<stop offset="1" stop-color="#E27437" stop-opacity="0.2"/>
</linearGradient>
<linearGradient id="paint2_linear_257_654" x1="20.171" y1="61.1578" x2="19.9271" y2="-0.796895" gradientUnits="userSpaceOnUse">
<stop stop-color="#CC622E"/>
<stop offset="1" stop-color="#CC622E" stop-opacity="0.2"/>
</linearGradient>
<linearGradient id="paint3_linear_257_654" x1="47.2377" y1="-0.0110349" x2="32.0285" y2="16.8404" gradientUnits="userSpaceOnUse">
<stop stop-color="#FFF2B6"/>
<stop offset="1" stop-color="#FFF49A" stop-opacity="0.2"/>
</linearGradient>
</defs>
</svg>
