<svg width="50" height="50" viewBox="0 0 50 50" fill="none" xmlns="http://www.w3.org/2000/svg">
<path d="M49.8966 27.2644C48.7672 39.5185 38.5506 50 25.0012 50C8.08331 50 -3.88486 33.5065 1.16793 17.5086C2.90767 11.9645 6.58927 7.10249 11.6024 3.9061C12.6407 3.24778 13.7385 2.65688 14.8838 2.1453C27.8783 -3.62486 43.1675 2.66085 48.3114 16.0135C49.7539 19.7691 50.2335 23.596 49.8966 27.2644Z" fill="url(#paint0_radial_257_68)"/>
<path d="M36.7752 47.0495C33.2679 48.9293 29.2574 49.9961 24.9972 49.9961C15.2919 49.9961 6.8785 44.4559 2.74512 36.3618C4.49675 37.2581 7.72657 38.6818 11.4795 39.2647C16.9246 40.1095 23.5151 39.003 26.6141 40.5893C31.7818 43.2345 32.622 46.2722 36.7752 47.0495Z" fill="url(#paint1_linear_257_68)"/>
<path d="M15.7436 35.5883C10.9365 35.9175 4.25888 33.6412 1.15191 32.4554C0.41876 30.0997 0.0224609 27.5974 0.0224609 25.0038C0.0224609 24.0718 0.0739815 23.1517 0.173056 22.2476C1.52839 23.8537 4.63536 27.2047 8.54285 29.2669C13.8334 32.0628 22.2072 35.1481 15.7436 35.5883Z" fill="url(#paint2_linear_257_68)"/>
<path d="M46.4248 37.857C45.4856 39.4234 44.376 40.8789 43.1277 42.1995C39.9216 41.323 36.347 39.7367 33.4501 37.2819C28.2943 32.9156 27.573 30.9605 15.6722 27.1375C7.36978 24.4686 2.99862 20.0864 1.11621 17.6792C1.70273 15.7598 2.51513 13.9356 3.52569 12.2422C5.88366 14.7922 11.1108 19.789 17.7329 22.1367C26.8438 25.3728 28.3101 25.0754 36.5372 32.5746C40.0405 35.7749 43.5517 37.2343 46.4248 37.857Z" fill="url(#paint3_linear_257_68)"/>
<path d="M49.9759 25.0038C49.9759 27.8076 49.5162 30.5003 48.6642 33.0146C46.2507 32.9631 42.5136 31.9676 38.2931 27.5776C30.9457 19.9316 20.0753 18.4603 19.9287 15.9619C19.782 13.4635 31.0963 15.5217 37.9998 19.3447C42.9654 22.0969 46.643 24.0837 49.9561 23.9965C49.968 24.3296 49.9759 24.6667 49.9759 25.0038Z" fill="url(#paint4_linear_257_68)"/>
<path d="M14.7885 11.1118C11.7965 9.71588 8.3249 9.4938 8.17827 10.6716C8.03164 11.8495 10.235 15.6685 14.202 14.9348C18.1649 14.1972 16.9919 12.139 14.7885 11.1118Z" fill="url(#paint5_linear_257_68)"/>
<path d="M48.3114 16.0135C44.6021 13.757 38.2732 12.2104 28.453 9.93405C20.1902 8.01859 16.5086 4.60805 14.8838 2.14532C16.9881 1.21337 19.2431 0.559019 21.605 0.237793C23.4121 1.95496 27.1413 4.30666 34.77 6.2578C39.1015 7.36425 42.4661 8.73243 45.042 10.0887C46.3854 11.8931 47.4871 13.8839 48.3114 16.0135Z" fill="url(#paint6_linear_257_68)"/>
<path d="M36.3829 41.1051C35.095 40.3952 30.6525 37.869 33.4464 43.0166C34.5441 45.0391 39.3234 42.7231 36.3829 41.1051Z" fill="url(#paint7_linear_257_68)"/>
<path d="M30.3589 38.4559C29.7565 38.4996 30.0656 39.7805 30.6521 39.9272C31.2426 40.074 32.4196 38.3092 30.3589 38.4559Z" fill="url(#paint8_linear_257_68)"/>
<path opacity="0.45" d="M48.6604 33.0265C48.0858 34.7278 47.3328 36.3419 46.4253 37.8568C45.4861 39.4233 44.3765 40.8787 43.1281 42.1993C41.2933 44.1386 39.1493 45.7804 36.7794 47.0494C33.2722 48.9292 29.2617 49.996 25.0015 49.996C15.2962 49.996 6.88279 44.4558 2.74941 36.3617C2.11138 35.1165 1.57638 33.8118 1.1563 32.4555C0.423155 30.0998 0.0268555 27.5974 0.0268555 25.0038C0.0268555 24.0719 0.078376 23.1518 0.17745 22.2476C0.347858 20.6772 0.664894 19.1464 1.11667 17.6751C1.13252 17.6196 1.15234 17.5601 1.16819 17.5046C4.79827 13.6063 11.6502 15.8429 15.0861 20.9588C20.242 28.6444 32.5668 51.5426 48.6604 33.0265Z" fill="url(#paint9_linear_257_68)"/>
<path opacity="0.55" d="M48.7711 32.6893C48.3194 34.1606 47.4832 36.0958 46.4251 37.8566C35.1663 56.6226 7.10447 52.756 1.0332 32.0508C4.15206 36.31 8.34092 39.5342 13.9089 41.1046C33.7554 46.6884 43.9244 39.1614 48.7711 32.6893Z" fill="url(#paint10_linear_257_68)"/>
<path d="M48.3111 16.0135C49.7576 19.7651 50.2331 23.596 49.8963 27.2643C49.1354 20.7962 45.9333 10.279 33.5926 5.37731C24.5491 1.78434 16.9759 2.37127 11.5981 3.90602C12.6364 3.2477 13.7342 2.6568 14.8795 2.14522C27.878 -3.62494 43.1672 2.66474 48.3111 16.0135Z" fill="url(#paint11_linear_257_68)"/>
<defs>
<radialGradient id="paint0_radial_257_68" cx="0" cy="0" r="1" gradientUnits="userSpaceOnUse" gradientTransform="translate(24.3365 15.2954) scale(24.9879 25.0054)">
<stop stop-color="#A0E2EA"/>
<stop offset="1" stop-color="#018ED9"/>
</radialGradient>
<linearGradient id="paint1_linear_257_68" x1="26.12" y1="57.8871" x2="5.38025" y2="5.19223" gradientUnits="userSpaceOnUse">
<stop stop-color="#7E31A6"/>
<stop offset="1" stop-color="#7731B1" stop-opacity="0.2"/>
</linearGradient>
<linearGradient id="paint2_linear_257_68" x1="20.1076" y1="60.2532" x2="-0.632129" y2="7.55849" gradientUnits="userSpaceOnUse">
<stop stop-color="#7E31A6"/>
<stop offset="1" stop-color="#7731B1" stop-opacity="0.2"/>
</linearGradient>
<linearGradient id="paint3_linear_257_68" x1="34.3351" y1="54.6538" x2="13.5954" y2="1.95895" gradientUnits="userSpaceOnUse">
<stop stop-color="#7E31A6"/>
<stop offset="1" stop-color="#7731B1" stop-opacity="0.2"/>
</linearGradient>
<linearGradient id="paint4_linear_257_68" x1="46.6427" y1="49.8097" x2="25.903" y2="-2.88516" gradientUnits="userSpaceOnUse">
<stop stop-color="#7E31A6"/>
<stop offset="1" stop-color="#7731B1" stop-opacity="0.2"/>
</linearGradient>
<linearGradient id="paint5_linear_257_68" x1="29.9081" y1="56.396" x2="9.1684" y2="3.70122" gradientUnits="userSpaceOnUse">
<stop stop-color="#7E31A6"/>
<stop offset="1" stop-color="#7731B1" stop-opacity="0.2"/>
</linearGradient>
<linearGradient id="paint6_linear_257_68" x1="47.4751" y1="49.482" x2="26.7354" y2="-3.2129" gradientUnits="userSpaceOnUse">
<stop stop-color="#7E31A6"/>
<stop offset="1" stop-color="#7731B1" stop-opacity="0.2"/>
</linearGradient>
<linearGradient id="paint7_linear_257_68" x1="39.3137" y1="52.6945" x2="18.574" y2="-0.000133154" gradientUnits="userSpaceOnUse">
<stop stop-color="#7E31A6"/>
<stop offset="1" stop-color="#7731B1" stop-opacity="0.2"/>
</linearGradient>
<linearGradient id="paint8_linear_257_68" x1="36.5763" y1="53.7718" x2="15.8366" y2="1.07686" gradientUnits="userSpaceOnUse">
<stop stop-color="#7E31A6"/>
<stop offset="1" stop-color="#7731B1" stop-opacity="0.2"/>
</linearGradient>
<linearGradient id="paint9_linear_257_68" x1="19.6744" y1="50.7671" x2="27.061" y2="14.3874" gradientUnits="userSpaceOnUse">
<stop stop-color="#6D31A3"/>
<stop offset="1" stop-color="#B842B5" stop-opacity="0.3"/>
</linearGradient>
<linearGradient id="paint10_linear_257_68" x1="27.519" y1="56.0873" x2="24.7237" y2="30.8" gradientUnits="userSpaceOnUse">
<stop stop-color="#471AA3"/>
<stop offset="1" stop-color="#4C2EA3" stop-opacity="0.1"/>
</linearGradient>
<linearGradient id="paint11_linear_257_68" x1="56.2932" y1="-15.8253" x2="28.6491" y2="18.1178" gradientUnits="userSpaceOnUse">
<stop stop-color="#A4F6F6"/>
<stop offset="1" stop-color="#B5F4F9" stop-opacity="0"/>
</linearGradient>
</defs>
</svg>
