<svg width="50" height="50" viewBox="0 0 50 50" fill="none" xmlns="http://www.w3.org/2000/svg">
<path d="M49.9957 24.999C49.9957 45.1456 27.4543 56.7514 11.0825 45.7623C-3.367 36.0708 -3.75824 14.905 10.3941 4.71329C10.3941 4.71329 10.3978 4.70953 10.4054 4.70576C10.4242 4.69448 10.4242 4.69073 10.4279 4.68696C10.4392 4.67568 10.4505 4.66816 10.4618 4.6644C26.7433 -7.00158 49.9957 4.49141 49.9957 24.999Z" fill="url(#paint0_radial_257_622)"/>
<path d="M14.4081 24.9989C14.5548 26.4693 9.40854 24.9989 6.1733 24.9989C4.01396 24.9989 1.71919 25.3937 0 24.8221C0.0150476 22.449 0.364905 20.155 0.996906 17.985C1.87343 17.8722 3.35939 18.1241 5.58644 19.8541C9.55526 22.9379 14.2614 23.5284 14.4081 24.9989Z" fill="url(#paint1_linear_257_622)"/>
<path d="M31.6112 28.0827C27.9358 27.7893 23.8165 26.7589 23.0829 27.496C22.3493 28.2293 29.0117 30.106 35.1399 31.1703C41.9038 32.3474 46.1698 32.7874 44.6989 30.8769C43.228 28.9664 40.8768 26.6122 37.1976 27.7893C33.526 28.9664 33.6652 28.2481 31.6112 28.0827Z" fill="url(#paint2_linear_257_622)"/>
<path d="M31.3179 38.376C31.3179 39.9668 16.7593 35.7284 11.9064 37.6426C8.27994 39.0717 7.11751 40.0871 4.92055 39.8991C2.33235 36.4166 0.624447 32.2383 0.13916 27.6953C1.40692 28.1767 3.58883 29.1094 7.05355 30.8807C13.3811 34.1112 31.3179 36.1684 31.3179 38.376Z" fill="url(#paint3_linear_257_622)"/>
<path d="M42.7992 42.5391C40.8994 44.4684 38.6837 46.0893 36.2422 47.319C35.5876 46.7324 34.9443 46.0705 33.9662 45.7245C31.4646 44.8407 24.8511 43.2273 26.1715 42.3435C27.4957 41.4597 31.758 42.0502 36.7576 41.7568C39.7859 41.5763 41.7346 42.0991 42.7992 42.5391Z" fill="url(#paint4_linear_257_622)"/>
<path d="M40.7302 38.5229C38.9696 36.6537 33.9663 37.0524 34.6998 38.8162C35.1024 39.7752 43.0814 41.02 40.7302 38.5229Z" fill="url(#paint5_linear_257_622)"/>
<path d="M19.4079 41.1665C17.2223 40.6814 15.7325 41.6065 15.4391 42.3437C15.1457 43.077 21.4694 44.1075 21.6162 43.3741C21.7629 42.6408 20.7321 41.4599 19.4079 41.1665Z" fill="url(#paint6_linear_257_622)"/>
<path d="M18.5272 28.5265C17.0713 28.1617 14.4116 28.8198 14.4116 29.7036C14.4116 30.5874 17.9403 31.6141 19.4112 31.1741C20.8783 30.7303 21.4652 29.2598 18.5272 28.5265Z" fill="url(#paint7_linear_257_622)"/>
<path d="M21.0255 31.3168C20.5892 31.2453 19.9948 31.7568 20.292 32.2006C20.5854 32.6406 22.7899 31.6139 21.0255 31.3168Z" fill="url(#paint8_linear_257_622)"/>
<path d="M35.8773 35.4352C34.9331 35.1531 34.2597 35.5818 34.6999 36.4656C35.1438 37.3457 38.8192 36.3152 35.8773 35.4352Z" fill="url(#paint9_linear_257_622)"/>
<path d="M42.7883 39.9931C42.2691 39.4741 41.9042 40.4331 42.2014 40.7265C42.4948 41.0198 43.9658 41.1665 42.7883 39.9931Z" fill="url(#paint10_linear_257_622)"/>
<path d="M29.403 49.5983C27.9735 49.854 26.4988 49.9856 24.9978 49.9856C19.8478 49.9856 15.0589 48.4287 11.0825 45.7585C14.0281 44.9086 18.9261 45.6043 23.8241 47.9285C26.1038 49.0153 27.9735 49.4553 29.403 49.5983Z" fill="url(#paint11_linear_257_622)"/>
<path d="M30.4377 46.9019C29.6891 46.9019 29.7041 47.3419 29.7041 47.7856C29.7041 48.2257 30.4377 48.3723 30.8816 47.7856C31.318 47.1952 31.0246 46.9019 30.4377 46.9019Z" fill="url(#paint12_linear_257_622)"/>
<path d="M28.5265 47.3416C28.2369 47.2927 28.0864 48.0749 28.5265 48.2253C28.9667 48.372 29.4068 47.4882 28.5265 47.3416Z" fill="url(#paint13_linear_257_622)"/>
<path d="M11.7635 39.2562C10.7441 39.4593 9.26187 40.14 10.5861 41.0201C11.9103 41.9038 14.7016 38.6696 11.7635 39.2562Z" fill="url(#paint14_linear_257_622)"/>
<path d="M6.91095 27.0559C6.38052 26.5256 6.0269 27.9397 6.3241 28.0864C6.61376 28.233 7.49781 27.6426 6.91095 27.0559Z" fill="url(#paint15_linear_257_622)"/>
<path d="M11.1729 18.6769C9.87127 18.0263 8.08436 17.4998 7.79093 18.0902C7.4975 18.6769 13.0839 22.6483 14.4081 21.7645C15.7323 20.8807 12.3504 19.2636 11.1729 18.6769Z" fill="url(#paint16_linear_257_622)"/>
<path d="M32.7891 24.9986C31.8599 24.5323 31.905 26.6157 33.2292 27.2024C34.5534 27.7891 33.3797 25.292 32.7891 24.9986Z" fill="url(#paint17_linear_257_622)"/>
<path d="M47.2006 27.4959C45.425 27.4132 46.0231 30.2902 47.2006 30.5835C48.3781 30.8768 50.2891 27.6426 47.2006 27.4959Z" fill="url(#paint18_linear_257_622)"/>
<path opacity="0.45" d="M39.0449 45.6681C38.1496 46.2774 37.2166 46.8265 36.2423 47.3191C34.1168 48.3909 31.8183 49.1694 29.3993 49.5982C27.9698 49.8539 26.4952 49.9855 24.9941 49.9855C19.8441 49.9855 15.0552 48.4286 11.0788 45.7584C8.70507 44.1676 6.62473 42.1819 4.92434 39.8916C4.55568 39.3951 4.20206 38.8837 3.87101 38.3572C1.87343 35.2094 0.560524 31.5802 0.142952 27.6878C0.0489038 26.804 0 25.9014 0 24.9951C0 24.9349 0 24.8747 0 24.8183C0.0150476 22.8627 0.252048 20.9597 0.692192 19.1357C3.81458 27.3794 9.78097 36.8265 21.1608 41.9111C22.5752 42.5429 24.0725 43.107 25.6562 43.5922C30.4 45.0438 34.8805 45.6531 39.0449 45.6681Z" fill="url(#paint19_linear_257_622)"/>
<path opacity="0.55" d="M48.5701 33.3252C47.3362 36.8152 45.3499 39.9517 42.7994 42.5391C41.6557 43.7012 40.3993 44.7505 39.045 45.6681C38.1496 46.2774 37.2167 46.8264 36.2424 47.3191C34.1169 48.3909 31.8183 49.1694 29.3994 49.5981C27.9699 49.8539 26.4952 49.9855 24.9942 49.9855C19.8442 49.9855 15.0553 48.4285 11.0789 45.7584C8.70515 44.1676 6.62482 42.1819 4.92443 39.8915C4.55576 39.3951 4.20214 38.8836 3.87109 38.3571C10.2663 40.5948 16.0183 41.6704 21.1608 41.9073C33.7294 42.4865 42.679 38.0525 48.5701 33.3252Z" fill="url(#paint20_linear_257_622)"/>
<path d="M10.4618 4.66455C10.443 4.67959 10.4279 4.68711 10.4204 4.69463C10.4279 4.68711 10.4467 4.67207 10.4618 4.66455Z" fill="url(#paint21_linear_257_622)"/>
<path d="M49.8115 28.0303C49.9244 26.9284 50.8272 14.5366 35.8059 6.25532C20.8373 -1.99586 11.3497 4.05902 10.4619 4.66451C14.5586 1.73109 19.577 0.00488281 24.9979 0.00488281C40.0305 0.0086436 51.6323 13.1789 49.8115 28.0303Z" fill="url(#paint22_linear_257_622)"/>
<defs>
<radialGradient id="paint0_radial_257_622" cx="0" cy="0" r="1" gradientUnits="userSpaceOnUse" gradientTransform="translate(26.765 14.191) scale(29.8088 29.7999)">
<stop stop-color="#FBDFB6"/>
<stop offset="1" stop-color="#ED8D35"/>
</radialGradient>
<linearGradient id="paint1_linear_257_622" x1="2.65286" y1="56.0036" x2="11.911" y2="-8.82226" gradientUnits="userSpaceOnUse">
<stop stop-color="#BD602B"/>
<stop offset="1" stop-color="#E28E2B" stop-opacity="0"/>
</linearGradient>
<linearGradient id="paint2_linear_257_622" x1="29.6818" y1="59.8636" x2="38.9398" y2="-4.96203" gradientUnits="userSpaceOnUse">
<stop stop-color="#BD7A2B"/>
<stop offset="1" stop-color="#E2832B" stop-opacity="0"/>
</linearGradient>
<linearGradient id="paint3_linear_257_622" x1="12.2535" y1="57.3748" x2="21.5116" y2="-7.45104" gradientUnits="userSpaceOnUse">
<stop stop-color="#BD712B"/>
<stop offset="1" stop-color="#E2992B" stop-opacity="0"/>
</linearGradient>
<linearGradient id="paint4_linear_257_622" x1="31.8823" y1="60.1779" x2="41.1404" y2="-4.6481" gradientUnits="userSpaceOnUse">
<stop stop-color="#BD602B"/>
<stop offset="1" stop-color="#E22B57" stop-opacity="0"/>
</linearGradient>
<linearGradient id="paint5_linear_257_622" x1="34.793" y1="60.5939" x2="44.0511" y2="-4.23189" gradientUnits="userSpaceOnUse">
<stop stop-color="#BD712B"/>
<stop offset="1" stop-color="#E22B57" stop-opacity="0"/>
</linearGradient>
<linearGradient id="paint6_linear_257_622" x1="16.3664" y1="57.9622" x2="25.6245" y2="-6.86396" gradientUnits="userSpaceOnUse">
<stop stop-color="#BD832B"/>
<stop offset="1" stop-color="#E22B57" stop-opacity="0"/>
</linearGradient>
<linearGradient id="paint7_linear_257_622" x1="13.5582" y1="57.5613" x2="22.8163" y2="-7.26498" gradientUnits="userSpaceOnUse">
<stop stop-color="#BD832B"/>
<stop offset="1" stop-color="#E22B57" stop-opacity="0"/>
</linearGradient>
<linearGradient id="paint8_linear_257_622" x1="17.204" y1="58.0816" x2="26.4621" y2="-6.7444" gradientUnits="userSpaceOnUse">
<stop stop-color="#BD712B"/>
<stop offset="1" stop-color="#E22B57" stop-opacity="0"/>
</linearGradient>
<linearGradient id="paint9_linear_257_622" x1="32.3279" y1="60.242" x2="41.586" y2="-4.58432" gradientUnits="userSpaceOnUse">
<stop stop-color="#BD602B"/>
<stop offset="1" stop-color="#E2782B" stop-opacity="0"/>
</linearGradient>
<linearGradient id="paint10_linear_257_622" x1="39.7011" y1="61.2943" x2="48.959" y2="-3.53061" gradientUnits="userSpaceOnUse">
<stop stop-color="#BD7A2B"/>
<stop offset="1" stop-color="#E22B57" stop-opacity="0"/>
</linearGradient>
<linearGradient id="paint11_linear_257_622" x1="18.7231" y1="58.2987" x2="27.9812" y2="-6.52694" gradientUnits="userSpaceOnUse">
<stop stop-color="#BD832B"/>
<stop offset="1" stop-color="#E2992B" stop-opacity="0"/>
</linearGradient>
<linearGradient id="paint12_linear_257_622" x1="28.6391" y1="59.7148" x2="37.8971" y2="-5.11024" gradientUnits="userSpaceOnUse">
<stop stop-color="#BD832B"/>
<stop offset="1" stop-color="#E2782B" stop-opacity="0"/>
</linearGradient>
<linearGradient id="paint13_linear_257_622" x1="26.9686" y1="59.4761" x2="36.2267" y2="-5.34988" gradientUnits="userSpaceOnUse">
<stop stop-color="#BD7A2B"/>
<stop offset="1" stop-color="#E2992B" stop-opacity="0"/>
</linearGradient>
<linearGradient id="paint14_linear_257_622" x1="9.13739" y1="56.9297" x2="18.3954" y2="-7.89551" gradientUnits="userSpaceOnUse">
<stop stop-color="#BD712B"/>
<stop offset="1" stop-color="#E2992B" stop-opacity="0"/>
</linearGradient>
<linearGradient id="paint15_linear_257_622" x1="2.6041" y1="55.9968" x2="11.8623" y2="-8.82947" gradientUnits="userSpaceOnUse">
<stop stop-color="#BD602B"/>
<stop offset="1" stop-color="#E2992B" stop-opacity="0"/>
</linearGradient>
<linearGradient id="paint16_linear_257_622" x1="5.99375" y1="56.4806" x2="15.2519" y2="-8.34529" gradientUnits="userSpaceOnUse">
<stop stop-color="#BD712B"/>
<stop offset="1" stop-color="#E2A42B" stop-opacity="0"/>
</linearGradient>
<linearGradient id="paint17_linear_257_622" x1="28.2185" y1="59.6547" x2="37.4766" y2="-5.17148" gradientUnits="userSpaceOnUse">
<stop stop-color="#BD712B"/>
<stop offset="1" stop-color="#E2832B" stop-opacity="0"/>
</linearGradient>
<linearGradient id="paint18_linear_257_622" x1="42.7561" y1="61.731" x2="52.0142" y2="-3.09525" gradientUnits="userSpaceOnUse">
<stop stop-color="#BD712B"/>
<stop offset="1" stop-color="#E2A42B" stop-opacity="0"/>
</linearGradient>
<linearGradient id="paint19_linear_257_622" x1="17.0292" y1="48.7308" x2="20.8501" y2="26.533" gradientUnits="userSpaceOnUse">
<stop stop-color="#BD712B"/>
<stop offset="1" stop-color="#E2992B" stop-opacity="0"/>
</linearGradient>
<linearGradient id="paint20_linear_257_622" x1="30.0665" y1="51.1271" x2="25.58" y2="33.2855" gradientUnits="userSpaceOnUse">
<stop stop-color="#A66D2B"/>
<stop offset="1" stop-color="#AE522B" stop-opacity="0"/>
</linearGradient>
<linearGradient id="paint21_linear_257_622" x1="10.461" y1="4.65049" x2="10.4191" y2="4.70928" gradientUnits="userSpaceOnUse">
<stop stop-color="#FADBD1"/>
<stop offset="1" stop-color="#F9F1DD" stop-opacity="0"/>
</linearGradient>
<linearGradient id="paint22_linear_257_622" x1="44.7166" y1="-4.09713" x2="33.8105" y2="11.2035" gradientUnits="userSpaceOnUse">
<stop stop-color="#FAEAD1"/>
<stop offset="1" stop-color="#F9E4DD" stop-opacity="0"/>
</linearGradient>
</defs>
</svg>
