<svg width="50" height="50" viewBox="0 0 50 50" fill="none" xmlns="http://www.w3.org/2000/svg">
<path d="M25.0109 50C15.5878 50 7.37827 44.7762 3.12827 37.0625C-6.24797 20.0547 6.68478 -0.591922 25.5638 0.0129864C37.5734 0.256825 47.7181 9.11475 49.6534 20.8941C52.193 36.0965 40.4552 50 25.0109 50Z" fill="url(#paint0_radial_257_427)"/>
<g opacity="0.75">
<path d="M34.9307 29.0441C33.8951 28.7862 33.6093 30.0758 34.195 30.3665C34.7808 30.6619 36.2521 31.5435 36.5473 30.9527C36.8425 30.3665 36.1068 29.3396 34.9307 29.0441Z" fill="#056DB1"/>
<path d="M45.2157 18.1652C44.213 18.395 43.0134 18.9014 44.0396 19.6376C45.0705 20.3738 46.6823 20.0784 46.8323 19.1968C46.9775 18.3106 47.1275 17.7244 45.2157 18.1652Z" fill="#056DB1"/>
<path d="M25.0854 41.8361C22.93 40.5419 19.7952 40.073 19.5 41.3953C19.2048 42.7177 21.2618 44.7763 23.7593 44.4808C26.2615 44.1901 26.5567 42.7177 25.0854 41.8361Z" fill="#056DB1"/>
<path d="M32.1141 48.9731C30.1695 49.5498 28.1265 49.8968 26.0132 49.9766C26.4958 46.9145 29.4057 47.8805 30.9614 48.3025C31.4159 48.4291 31.7954 48.6777 32.1141 48.9731Z" fill="#056DB1"/>
<path d="M11.4218 41.6906C12.3731 42.1079 13.0384 40.0728 11.7171 38.3096C10.3957 36.5465 9.80526 34.3379 8.18867 33.8971C6.57207 33.4563 5.69114 39.1912 11.4218 41.6906Z" fill="#056DB1"/>
<path d="M4.95532 34.4836C4.4352 34.5774 4.21965 35.6606 5.39578 35.806C6.57191 35.956 6.57191 34.1929 4.95532 34.4836Z" fill="#056DB1"/>
<path d="M18.0336 28.4578C16.998 28.364 15.9765 28.8985 16.1218 30.0755C16.267 31.2525 17.8836 30.0755 18.6193 30.0755C19.3549 30.0755 19.6501 28.6031 18.0336 28.4578Z" fill="#056DB1"/>
<path d="M28.1735 14.7842C27.2832 14.3622 27.1427 16.2566 27.8783 16.5473C28.614 16.8427 30.671 15.9565 28.1735 14.7842Z" fill="#056DB1"/>
</g>
<path d="M18.7694 24.3405C13.7743 25.2221 13.0387 25.3675 8.48411 29.1939C5.47116 31.7214 2.327 30.9054 0.546407 30.0614C0.213717 28.4295 0.0356445 26.7367 0.0356445 25.0017C0.0356445 17.8929 3.00175 11.4733 7.7625 6.9248C8.74183 7.50627 9.75395 8.29406 10.5412 9.34444C12.7435 12.2846 12.303 13.4616 18.7694 16.8425C25.2311 20.2234 23.7644 23.459 18.7694 24.3405Z" fill="url(#paint1_linear_257_427)"/>
<path d="M47.5873 14.2913C42.9765 13.3253 39.8324 18.5444 36.6929 18.1646C33.0192 17.7238 34.0501 12.2843 30.9622 6.5494C29.4159 3.67961 29.3081 1.69138 29.5846 0.425293C37.5644 1.89771 44.2089 7.16838 47.5873 14.2913Z" fill="url(#paint2_linear_257_427)"/>
<path d="M49.9911 25.0016C49.9911 34.7035 44.4712 43.1113 36.4023 47.2566C34.5608 44.3446 37.5457 42.1828 41.1022 39.9273C45.5115 37.1325 41.3974 35.9556 42.1284 31.3976C42.864 26.8397 40.0713 26.5443 41.3927 22.7226C42.3345 19.9935 47.2452 22.5819 49.977 24.2888C49.9864 24.5233 49.9911 24.7624 49.9911 25.0016Z" fill="url(#paint3_linear_257_427)"/>
<path d="M26.5574 32.5749C23.8865 33.4049 22.4433 30.2209 19.0648 30.9571C15.6864 31.6933 12.8936 37.719 17.4482 37.5736C22.0028 37.4282 23.1789 36.8374 26.5574 39.1914C29.9358 41.5454 33.9047 39.9276 35.0808 36.2513C36.2522 32.5749 35.5166 29.7801 26.5574 32.5749Z" fill="url(#paint4_linear_257_427)"/>
<path d="M32.1382 21.5456C30.7325 21.9958 30.3763 22.7226 30.8168 23.6042C31.2573 24.4858 33.0191 24.3404 33.9 25.6627C34.781 26.9851 36.988 28.6029 37.5737 25.6627C38.1641 22.7226 35.3714 20.514 32.1382 21.5456Z" fill="url(#paint5_linear_257_427)"/>
<path opacity="0.5" d="M26.9975 13.8975C26.7351 15.8576 24.9404 13.8975 22.0024 13.3114C19.0645 12.7252 17.8883 10.9574 19.2097 9.78041C20.5311 8.60342 22.293 7.72185 24.0595 8.74878C25.8214 9.78041 27.288 11.6936 26.9975 13.8975Z" fill="#056DB1"/>
<path d="M23.9099 2.28237C20.2363 2.28237 18.4744 4.34094 15.096 5.51793C13.0811 6.21662 11.4879 5.40539 10.5273 4.63636C14.6133 1.71967 19.6131 0.00341797 25.0158 0.00341797C25.2032 0.00341797 25.3859 0.00341282 25.5687 0.0127912C25.8264 1.07255 25.7327 2.28237 23.9099 2.28237Z" fill="url(#paint6_linear_257_427)"/>
<path opacity="0.45" d="M48.8005 32.6499C46.7622 39.0038 42.2498 44.251 36.4019 47.2568C35.0384 47.9555 33.6046 48.5322 32.1145 48.9777C30.1699 49.5545 28.1269 49.9015 26.0136 49.9812C25.6809 49.9953 25.3482 50 25.0108 50C15.5877 50 7.37826 44.7762 3.12826 37.0624C1.93807 34.9054 1.05716 32.5514 0.546407 30.0614C0.213717 28.4296 0.0356445 26.7368 0.0356445 25.0018C0.0356445 21.9819 0.569828 19.0887 1.54916 16.4111C4.37468 24.8564 10.8411 35.7541 25.5403 37.7752C28.408 38.1691 31.0883 38.2207 33.5905 38.005C39.7288 37.4657 44.7801 35.318 48.8005 32.6499Z" fill="url(#paint7_linear_257_427)"/>
<path opacity="0.45" d="M49.9909 25.002C49.9909 27.6701 49.5738 30.2398 48.8007 32.6501C46.7624 39.0039 42.25 44.2512 36.4021 47.257C35.0385 47.9557 33.6047 48.5324 32.1146 48.9779C30.17 49.5547 28.127 49.9017 26.0137 49.9814C25.6811 49.9955 25.3484 50.0002 25.011 50.0002C15.5879 50.0002 7.37842 44.7764 3.12842 37.0626C7.4487 38.8398 12.5937 40.0543 18.6946 40.2935C24.6127 40.5279 29.5234 39.6135 33.5906 38.0005C42.3343 34.5398 47.2075 27.8436 49.8503 22.3291C49.9206 22.9715 49.9628 23.628 49.9815 24.2845C49.9862 24.5237 49.9909 24.7628 49.9909 25.002Z" fill="url(#paint8_linear_257_427)"/>
<path d="M49.658 20.9079C49.658 20.9079 46.1015 7.87186 29.7481 3.58123C19.9455 1.00685 13.1417 3.32801 9.2666 5.59759C21.6417 -4.51235 40.5676 -0.49839 47.5869 14.2914C49.2175 17.7192 49.5409 20.4296 49.658 20.9079Z" fill="url(#paint9_linear_257_427)"/>
<defs>
<radialGradient id="paint0_radial_257_427" cx="0" cy="0" r="1" gradientUnits="userSpaceOnUse" gradientTransform="translate(26.2509 15.2193) scale(30.3143 30.3365)">
<stop stop-color="#00B3DC"/>
<stop offset="1" stop-color="#056DB0"/>
</radialGradient>
<linearGradient id="paint1_linear_257_427" x1="8.59909" y1="-13.5379" x2="14.3375" y2="58.3597" gradientUnits="userSpaceOnUse">
<stop stop-color="#F2F236"/>
<stop offset="1" stop-color="#F2F236" stop-opacity="0"/>
</linearGradient>
<linearGradient id="paint2_linear_257_427" x1="36.6287" y1="-15.7753" x2="42.3672" y2="56.1223" gradientUnits="userSpaceOnUse">
<stop stop-color="#F2F236"/>
<stop offset="1" stop-color="#F2F236" stop-opacity="0"/>
</linearGradient>
<linearGradient id="paint3_linear_257_427" x1="38.8542" y1="-15.9529" x2="44.5927" y2="55.9447" gradientUnits="userSpaceOnUse">
<stop stop-color="#F2F236"/>
<stop offset="1" stop-color="#F2F236" stop-opacity="0"/>
</linearGradient>
<linearGradient id="paint4_linear_257_427" x1="21.3517" y1="-14.5556" x2="27.0901" y2="57.3422" gradientUnits="userSpaceOnUse">
<stop stop-color="#F2F236"/>
<stop offset="1" stop-color="#F2F236" stop-opacity="0"/>
</linearGradient>
<linearGradient id="paint5_linear_257_427" x1="31.0236" y1="-15.3279" x2="36.7621" y2="56.5699" gradientUnits="userSpaceOnUse">
<stop stop-color="#F2F236"/>
<stop offset="1" stop-color="#F2F236" stop-opacity="0"/>
</linearGradient>
<linearGradient id="paint6_linear_257_427" x1="16.7561" y1="-14.1891" x2="22.4945" y2="57.7086" gradientUnits="userSpaceOnUse">
<stop stop-color="#F2F236"/>
<stop offset="1" stop-color="#F2F236" stop-opacity="0"/>
</linearGradient>
<linearGradient id="paint7_linear_257_427" x1="21.214" y1="57.3633" x2="24.966" y2="23.1791" gradientUnits="userSpaceOnUse">
<stop stop-color="#00ACD8"/>
<stop offset="1" stop-color="#0983BD"/>
</linearGradient>
<linearGradient id="paint8_linear_257_427" x1="23.7332" y1="55.8939" x2="27.9265" y2="20.166" gradientUnits="userSpaceOnUse">
<stop stop-color="#056EB1"/>
<stop offset="1" stop-color="#00A9D7" stop-opacity="0.3"/>
</linearGradient>
<linearGradient id="paint9_linear_257_427" x1="43.1518" y1="-13.764" x2="27.4118" y2="17.2519" gradientUnits="userSpaceOnUse">
<stop stop-color="#E2FFB5"/>
<stop offset="1" stop-color="#FFFFB3" stop-opacity="0"/>
</linearGradient>
</defs>
</svg>
