<svg width="52" height="51" viewBox="0 0 52 51" fill="none" xmlns="http://www.w3.org/2000/svg">
<path d="M11.24 45.1423C-2.78083 34.9134 -2.34353 13.7318 12.2421 4.12195C22.1405 -2.4242 35.5554 -1.12225 44.0098 7.6636C47.8999 11.7015 50.4235 17.0321 50.9063 22.9137C52.6965 44.2729 28.422 57.7293 11.24 45.1423Z" fill="url(#paint0_radial_257_331)"/>
<path d="M49.8724 17.5602C45.9048 17.5465 38.3569 16.8546 29.57 12.7075C19.8584 8.12334 11.8185 7.35857 8.37939 7.26752C9.55918 6.09759 10.8529 5.04147 12.2467 4.12646C14.5334 4.45423 18.8472 5.40565 26.7185 8.00043C36.0475 11.0778 41.4134 9.28417 44.019 7.66812C46.6747 10.4268 48.7062 13.8 49.8724 17.5602Z" fill="url(#paint1_linear_257_331)"/>
<path d="M41.8414 5.66068C39.664 6.52561 35.3822 7.27218 27.9983 5.14173C21.5345 3.2753 17.7036 2.55149 15.5581 2.28291C16.8427 1.69112 18.1819 1.20858 19.5712 0.839844C21.457 1.34514 23.9624 2.11447 27.2831 3.28895C33.8744 5.61971 38.0925 5.30561 40.4794 4.62277C40.9486 4.95053 41.4041 5.2965 41.8414 5.66068Z" fill="url(#paint2_linear_257_331)"/>
<path d="M38.07 3.10226C35.5737 3.34808 30.7817 3.30256 27.5703 0.0522461C31.3602 0.284411 34.9223 1.3633 38.07 3.10226Z" fill="url(#paint3_linear_257_331)"/>
<path d="M50.9976 24.9805C50.9976 25.3128 50.9884 25.6451 50.9793 25.9774C47.6404 26.3598 40.7803 25.9911 29.7158 20.2689C15.7224 13.0353 8.65731 12.6256 3.96094 13.1856C4.22969 12.6848 4.51211 12.1932 4.81731 11.7152C7.94215 11.3282 14.9298 11.4375 26.5773 16.5542C40.9716 22.8773 45.5587 24.2475 50.9156 22.9046C50.9657 23.592 50.9976 24.284 50.9976 24.9805Z" fill="url(#paint4_linear_257_331)"/>
<path d="M21.7127 20.4143C12.9531 16.3765 4.89956 17.7149 1.85671 18.4751C1.37386 20.2596 1.08688 22.1214 1.01855 24.0425C17.8544 20.997 30.1853 30.4248 25.9991 31.1213C21.7127 31.836 19.8587 32.405 13.1444 34.5491C8.24305 36.1151 4.32561 34.631 2.57643 33.716C3.25059 35.5278 4.12973 37.2395 5.19109 38.8237C13.8823 42.0694 20.829 38.637 29.8619 35.8328C36.8814 33.6523 43.7141 35.9421 47.5086 37.7266C48.784 35.5825 49.7451 33.229 50.3373 30.7343C38.1659 32.9695 32.0164 25.1624 21.7127 20.4143Z" fill="url(#paint5_linear_257_331)"/>
<path d="M16.428 30.548C13.8589 30.6891 12.4286 31.4038 8.42917 31.9774C6.45678 32.2597 3.89678 31.8135 1.80596 31.2855C1.40511 29.7514 1.15002 28.1535 1.0498 26.5193C12.9297 24.5982 18.8468 30.4115 16.428 30.548Z" fill="url(#paint6_linear_257_331)"/>
<path d="M44.0054 42.3066C43.4224 42.912 42.812 43.4856 42.1697 44.0273C39.1223 43.0759 35.6695 42.4796 31.9935 42.6799C23.5163 43.1442 18.4418 46.0622 11.2356 45.1426C10.8074 44.8285 10.3883 44.5053 9.98291 44.1639C12.9255 44.5599 18.2095 44.3688 27.4201 41.824C33.8884 40.0396 39.4958 40.7269 44.0054 42.3066Z" fill="url(#paint7_linear_257_331)"/>
<path d="M38.2613 46.7539C34.6399 48.7933 30.4537 49.9587 25.9988 49.9587C24.3999 49.9587 22.8375 49.8085 21.3252 49.5217C26.6912 43.581 34.5124 45.3882 38.2613 46.7539Z" fill="url(#paint8_linear_257_331)"/>
<path opacity="0.55" d="M48.5377 35.7922C48.2188 36.4523 47.8726 37.0941 47.5037 37.7224C46.5152 39.3839 45.34 40.9226 44.0053 42.3065C43.4222 42.9119 42.8118 43.4855 42.1696 44.0272C40.9579 45.056 39.6506 45.971 38.2567 46.754C34.6353 48.7934 30.4491 49.9588 25.9942 49.9588C24.3953 49.9588 22.8329 49.8086 21.3206 49.5218C17.6036 48.8208 14.1781 47.2957 11.24 45.1425C10.8118 44.8284 10.3927 44.5052 9.98734 44.1638C8.14249 42.6251 6.52086 40.827 5.1862 38.8194C4.1294 37.2353 3.25025 35.5236 2.57153 33.7118C2.27544 32.9197 2.02035 32.1094 1.80171 31.2809C1.40085 29.7468 1.14577 28.1489 1.04555 26.5147C1.02733 26.2324 1.01367 25.9502 1.00911 25.668C1 25.4404 1 25.2082 1 24.9806C1 24.6665 1.00455 24.3524 1.01822 24.0383C1.0911 22.1218 1.37808 20.2553 1.85637 18.4709C2.35744 16.6135 3.06349 14.8473 3.9563 13.1857C4.22506 12.6849 4.50747 12.1933 4.81267 11.7153C5.1042 11.2555 5.40484 10.8049 5.7237 10.3633C9.2494 11.9839 12.8662 15.4436 15.4991 22.3357C19.2799 32.2323 26.0625 38.173 33.7471 39.3247C38.4981 40.044 43.5953 38.9287 48.5377 35.7922Z" fill="url(#paint9_linear_257_331)"/>
<path opacity="0.5" d="M50.9202 26.9472C50.82 28.2354 50.6196 29.501 50.328 30.7301C49.909 32.4964 49.3077 34.1944 48.5379 35.7922C48.219 36.4523 47.8728 37.0941 47.5038 37.7224C46.5154 39.3839 45.3401 40.9226 44.0055 42.3065C43.4224 42.9119 42.812 43.4855 42.1697 44.0272C40.9581 45.056 39.6507 45.971 38.2568 46.754C34.6355 48.7934 30.4493 49.9588 25.9943 49.9588C24.3955 49.9588 22.8331 49.8086 21.3207 49.5218C17.6037 48.8208 14.1783 47.2957 11.2402 45.1425C10.812 44.8284 10.3929 44.5052 9.9875 44.1638C8.14266 42.6251 6.52102 40.827 5.18636 38.8194C4.12956 37.2353 3.25041 35.5236 2.5717 33.7118C2.27561 32.9197 2.02052 32.1094 1.80187 31.2809C1.40102 29.7468 1.14593 28.1489 1.04572 26.5147C1.0275 26.2324 1.01383 25.9502 1.00928 25.668C3.42807 31.0669 7.80102 36.2793 15.5676 39.2565C22.2044 41.7966 28.3676 41.2868 33.7427 39.3293C41.3544 36.5706 47.3808 30.9258 50.9202 26.9472Z" fill="url(#paint10_linear_257_331)" stroke="url(#paint11_radial_257_331)" stroke-miterlimit="10"/>
<path d="M50.9244 26.8924C50.9153 26.3643 50.5965 14.0413 35.7831 6.53011C18.1637 -2.40597 6.86691 8.95646 6.61182 9.21594C16.0592 -2.39687 33.6012 -3.15254 44.0097 7.66818C48.9657 12.8077 51.462 19.759 50.9244 26.8924Z" fill="url(#paint12_linear_257_331)"/>
<defs>
<radialGradient id="paint0_radial_257_331" cx="0" cy="0" r="1" gradientUnits="userSpaceOnUse" gradientTransform="translate(28.8623 11.9993) scale(29.5599 29.5411)">
<stop stop-color="#EFA08F"/>
<stop offset="1" stop-color="#C97324"/>
</radialGradient>
<linearGradient id="paint1_linear_257_331" x1="13.9999" y1="54.0563" x2="34.973" y2="-3.76353" gradientUnits="userSpaceOnUse">
<stop stop-color="#864313"/>
<stop offset="1" stop-color="#9B4413" stop-opacity="0.1"/>
</linearGradient>
<linearGradient id="paint2_linear_257_331" x1="10.9147" y1="52.9378" x2="31.8879" y2="-4.88255" gradientUnits="userSpaceOnUse">
<stop stop-color="#863613"/>
<stop offset="1" stop-color="#9B4C13" stop-opacity="0.1"/>
</linearGradient>
<linearGradient id="paint3_linear_257_331" x1="13.7853" y1="53.9781" x2="34.7582" y2="-3.84138" gradientUnits="userSpaceOnUse">
<stop stop-color="#865113"/>
<stop offset="1" stop-color="#9B3C13" stop-opacity="0.1"/>
</linearGradient>
<linearGradient id="paint4_linear_257_331" x1="14.8361" y1="54.3599" x2="35.8092" y2="-3.46021" gradientUnits="userSpaceOnUse">
<stop stop-color="#864A13"/>
<stop offset="1" stop-color="#9B3C13" stop-opacity="0.1"/>
</linearGradient>
<linearGradient id="paint5_linear_257_331" x1="15.3138" y1="54.5328" x2="36.2869" y2="-3.28715" gradientUnits="userSpaceOnUse">
<stop stop-color="#864A13"/>
<stop offset="1" stop-color="#9B3C13" stop-opacity="0.1"/>
</linearGradient>
<linearGradient id="paint6_linear_257_331" x1="1.34421" y1="49.4661" x2="22.3173" y2="-8.3538" gradientUnits="userSpaceOnUse">
<stop stop-color="#863C13"/>
<stop offset="1" stop-color="#9B5413" stop-opacity="0.1"/>
</linearGradient>
<linearGradient id="paint7_linear_257_331" x1="22.0116" y1="56.9628" x2="42.9847" y2="-0.857085" gradientUnits="userSpaceOnUse">
<stop stop-color="#864A13"/>
<stop offset="1" stop-color="#9B6513" stop-opacity="0.1"/>
</linearGradient>
<linearGradient id="paint8_linear_257_331" x1="26.0548" y1="58.4292" x2="47.0279" y2="0.609217" gradientUnits="userSpaceOnUse">
<stop stop-color="#863C13"/>
<stop offset="1" stop-color="#9B4413" stop-opacity="0.1"/>
</linearGradient>
<linearGradient id="paint9_linear_257_331" x1="28.7769" y1="46.6908" x2="15.9376" y2="-0.202495" gradientUnits="userSpaceOnUse">
<stop stop-color="#7F4612"/>
<stop offset="1" stop-color="#D5743D" stop-opacity="0.1"/>
</linearGradient>
<linearGradient id="paint10_linear_257_331" x1="30.0137" y1="50.6128" x2="26.0932" y2="27.7789" gradientUnits="userSpaceOnUse">
<stop stop-color="#6D2812"/>
<stop offset="1" stop-color="#6A3C12" stop-opacity="0"/>
</linearGradient>
<radialGradient id="paint11_radial_257_331" cx="0" cy="0" r="1" gradientUnits="userSpaceOnUse" gradientTransform="translate(25.9783 37.3644) scale(20.0099 19.9971)">
<stop stop-color="#EFA68F"/>
<stop offset="1" stop-color="#C96924"/>
</radialGradient>
<linearGradient id="paint12_linear_257_331" x1="47.6265" y1="-12.0375" x2="23.2216" y2="26.9497" gradientUnits="userSpaceOnUse">
<stop stop-color="#FFDFAE"/>
<stop offset="1" stop-color="#FFD5AE" stop-opacity="0"/>
</linearGradient>
</defs>
</svg>
