<svg width="50" height="50" viewBox="0 0 50 50" fill="none" xmlns="http://www.w3.org/2000/svg">
<path d="M49.9998 24.9952C49.9998 25.7327 49.9684 26.4613 49.9054 27.1853C49.8469 27.8599 49.7614 28.5254 49.649 29.182C49.541 29.8251 49.4061 30.4592 49.2532 31.0798C48.7989 32.8922 48.1466 34.6281 47.3235 36.2561C47.0581 36.7777 46.7747 37.2904 46.4779 37.7941C45.9201 38.725 45.3084 39.6199 44.6336 40.4699C44.2918 40.9016 43.9409 41.3198 43.5721 41.7246C41.2016 44.3554 38.2779 46.4781 34.9898 47.9127C34.7469 48.0206 34.4995 48.1195 34.2521 48.2185C33.5189 48.5108 32.7722 48.7671 32.0075 48.992C31.4633 49.1494 30.9145 49.2888 30.3567 49.4102C28.634 49.7835 26.8437 49.9814 25.0085 49.9814C17.9195 49.9814 11.5233 47.0312 6.97122 42.2912C6.43145 41.7291 5.91867 41.14 5.43288 40.5284C4.4433 39.2871 3.57517 37.947 2.83299 36.5304C2.64407 36.1706 2.46415 35.8018 2.29322 35.4286C1.66799 34.0749 1.1642 32.6583 0.790863 31.1878C0.28258 29.2045 0.0126953 27.1268 0.0126953 24.9862C0.0126953 23.6685 0.116151 22.3778 0.309568 21.1186C0.386036 20.6329 0.471499 20.1562 0.574955 19.684C0.687407 19.1534 0.822349 18.6317 0.966288 18.1145C1.23617 17.1656 1.56453 16.2347 1.94237 15.3353C2.62608 13.7028 3.48071 12.1558 4.47929 10.7212C5.09103 9.84427 5.75674 9.0078 6.47194 8.2163C7.82586 6.72325 9.3552 5.39658 11.0285 4.2633C11.0825 4.22732 11.1364 4.19135 11.1904 4.15537C12.3059 3.41334 13.4844 2.76125 14.7169 2.20361C17.1639 1.09731 19.8177 0.373264 22.6065 0.112429C23.3937 0.0359772 24.1899 0 24.995 0C27.397 0 29.7225 0.341784 31.9221 0.971385C32.8577 1.24121 33.7708 1.56051 34.6569 1.93378C34.9898 2.07319 35.3181 2.2171 35.642 2.37C36.9914 3.0041 38.2734 3.75962 39.4788 4.61408C40.7833 5.54499 41.9933 6.59283 43.0953 7.7486C45.2094 9.97019 46.9187 12.574 48.1062 15.4522C48.2546 15.812 48.3985 16.1808 48.529 16.5495C48.9518 17.7278 49.2892 18.9465 49.5321 20.2012C49.8424 21.7617 49.9998 23.3627 49.9998 24.9952Z" fill="url(#paint0_radial_257_549)"/>
<path d="M49.9998 24.9951C49.9998 27.0953 49.739 29.1325 49.2532 31.0798C36.771 25.7282 15.3062 35.5769 0.790863 31.1922C0.28258 29.2089 0.0126953 27.1313 0.0126953 24.9906C0.0126953 23.673 0.116151 22.3823 0.309568 21.1231C25.8182 30.1623 35.0932 17.5838 49.541 20.2146C49.8424 21.7617 49.9998 23.3626 49.9998 24.9951Z" fill="url(#paint1_linear_257_549)"/>
<path d="M48.5428 16.5631C34.9496 14.2741 19.1298 23.6461 0.975586 18.1191C1.24547 17.1702 1.57383 16.2393 1.95167 15.3399C16.6874 21.0738 34.4548 13.7704 48.12 15.4658C48.2684 15.8301 48.4123 16.1944 48.5428 16.5631Z" fill="url(#paint2_linear_257_549)"/>
<path d="M43.1088 7.76684C28.8139 16.5858 10.7586 12.5518 4.48828 10.7305C5.10002 9.85352 5.76574 9.01705 6.48093 8.22555C24.3293 12.7722 35.4755 7.25416 39.4923 4.63232C40.7968 5.55874 42.0068 6.61107 43.1088 7.76684Z" fill="url(#paint3_linear_257_549)"/>
<path d="M35.6556 2.38359C29.6461 6.26913 21.5091 3.66978 11.0376 4.2724C12.2026 3.4854 13.4351 2.79733 14.726 2.2127C21.0638 2.48703 30.0105 4.59169 34.6705 1.94287C35.0034 2.08228 35.3317 2.23069 35.6556 2.38359Z" fill="url(#paint4_linear_257_549)"/>
<path d="M31.94 0.980174C30.2488 1.80315 27.1091 2.50471 22.6245 0.121218C23.4117 0.0447663 24.2078 0.00878906 25.013 0.00878906C27.415 0.00878906 29.736 0.346076 31.94 0.980174Z" fill="url(#paint5_linear_257_549)"/>
<path d="M47.3236 36.2562C47.0582 36.7778 46.7749 37.2905 46.478 37.7942C35.7411 32.9328 15.9225 38.3383 2.83762 36.5395C2.6487 36.1797 2.46878 35.8109 2.29785 35.4377C19.449 37.5558 38.0486 30.5718 47.3236 36.2562Z" fill="url(#paint6_linear_257_549)"/>
<path d="M32.0078 48.9874C31.4635 49.1448 30.9147 49.2842 30.357 49.4056C25.7419 48.6546 11.483 40.5732 6.97145 42.2911C6.43168 41.729 5.9189 41.1399 5.43311 40.5282C15.4548 40.4293 26.0388 48.5107 32.0078 48.9874Z" fill="url(#paint7_linear_257_549)"/>
<path d="M43.5768 41.7248C41.2063 44.3557 38.2825 46.4783 34.9944 47.9129C30.2805 46.4873 27.5591 43.6991 25.9128 42.9121C23.5064 41.7563 22.7822 40.8344 32.0527 40.1418C36.7757 39.7821 40.7835 40.722 43.5768 41.7248Z" fill="url(#paint8_linear_257_549)"/>
<path opacity="0.45" d="M49.6536 29.1819C48.0028 39.0666 40.4101 47.211 30.3614 49.4101C12.5175 53.2911 -3.26628 37.4072 0.584071 19.6929C2.65319 23.6054 7.25472 27.7788 17.2944 29.3348C32.4889 31.6823 42.3847 27.4954 49.6536 29.1819Z" fill="url(#paint9_linear_257_549)"/>
<path opacity="0.55" d="M44.2336 40.9645C44.0221 41.2209 43.8017 41.4772 43.5768 41.7246C41.2063 44.3554 38.2826 46.4781 34.9945 47.9127C34.7516 48.0206 34.5042 48.1195 34.2568 48.2185C33.5236 48.5108 32.777 48.7671 32.0123 48.992C31.468 49.1494 30.9192 49.2888 30.3615 49.4102C28.6387 49.7835 26.8485 49.9813 25.0133 49.9813C17.9243 49.9813 11.528 47.0312 6.97597 42.2912C6.51266 41.8055 6.06735 41.3063 5.64453 40.7847C9.75128 42.3272 15.7112 42.6375 24.352 40.5013C31.9448 38.6215 38.5705 39.1342 44.2336 40.9645Z" fill="url(#paint10_linear_257_549)"/>
<path d="M49.9995 24.995C49.9995 25.7325 49.9681 26.4611 49.9051 27.1851C49.8331 21.5502 47.8855 14.8089 41.0439 8.94014C27.9095 -2.32973 14.5862 2.61264 11.2036 4.16416C12.3191 3.42213 13.4976 2.77004 14.7301 2.21239C17.1771 1.10609 19.8309 0.382053 22.6197 0.121218C23.4069 0.0447663 24.2031 0.00878906 25.0082 0.00878906C27.4102 0.00878906 29.7357 0.350573 31.9353 0.980174C32.8709 1.25 33.784 1.5693 34.6701 1.94257C35.003 2.08198 35.3313 2.22589 35.6552 2.37879C37.0046 3.01289 38.2866 3.76841 39.492 4.62287C40.7965 5.55378 42.0065 6.60162 43.1085 7.75739C45.2226 9.97898 46.9319 12.5828 48.1194 15.461C48.2678 15.8208 48.4117 16.1896 48.5422 16.5583C48.965 17.7366 49.3023 18.9553 49.5452 20.21C49.8421 21.7615 49.9995 23.3625 49.9995 24.995Z" fill="url(#paint11_linear_257_549)"/>
<defs>
<radialGradient id="paint0_radial_257_549" cx="0" cy="0" r="1" gradientUnits="userSpaceOnUse" gradientTransform="translate(21.0407 10.8849) scale(40.9426 40.9342)">
<stop stop-color="#FFA360"/>
<stop offset="1" stop-color="#F22749"/>
</radialGradient>
<linearGradient id="paint1_linear_257_549" x1="20.622" y1="-5.55936" x2="30.5645" y2="63.6979" gradientUnits="userSpaceOnUse">
<stop stop-color="#FFBB71"/>
<stop offset="1" stop-color="#FFBB71" stop-opacity="0"/>
</linearGradient>
<linearGradient id="paint2_linear_257_549" x1="21.4533" y1="-5.67855" x2="31.3958" y2="63.5783" gradientUnits="userSpaceOnUse">
<stop stop-color="#FFBB71"/>
<stop offset="1" stop-color="#FFBB71" stop-opacity="0"/>
</linearGradient>
<linearGradient id="paint3_linear_257_549" x1="21.6525" y1="-5.70704" x2="31.5951" y2="63.55" gradientUnits="userSpaceOnUse">
<stop stop-color="#FFBB71"/>
<stop offset="1" stop-color="#FFBB71" stop-opacity="0"/>
</linearGradient>
<linearGradient id="paint4_linear_257_549" x1="22.0424" y1="-5.76327" x2="31.985" y2="63.4941" gradientUnits="userSpaceOnUse">
<stop stop-color="#FFBB71"/>
<stop offset="1" stop-color="#FFBB71" stop-opacity="0"/>
</linearGradient>
<linearGradient id="paint5_linear_257_549" x1="26.2855" y1="-6.37276" x2="36.228" y2="62.8851" gradientUnits="userSpaceOnUse">
<stop stop-color="#FFBB71"/>
<stop offset="1" stop-color="#FFBB71" stop-opacity="0"/>
</linearGradient>
<linearGradient id="paint6_linear_257_549" x1="18.9006" y1="-5.31208" x2="28.8431" y2="63.9451" gradientUnits="userSpaceOnUse">
<stop stop-color="#FFBB71"/>
<stop offset="1" stop-color="#FFBB71" stop-opacity="0"/>
</linearGradient>
<linearGradient id="paint7_linear_257_549" x1="11.68" y1="-4.27585" x2="21.6226" y2="64.9815" gradientUnits="userSpaceOnUse">
<stop stop-color="#FFBB71"/>
<stop offset="1" stop-color="#FFBB71" stop-opacity="0"/>
</linearGradient>
<linearGradient id="paint8_linear_257_549" x1="27.0378" y1="-6.48" x2="36.9803" y2="62.777" gradientUnits="userSpaceOnUse">
<stop stop-color="#FFBB71"/>
<stop offset="1" stop-color="#FFBB71" stop-opacity="0"/>
</linearGradient>
<linearGradient id="paint9_linear_257_549" x1="21.4986" y1="49.5234" x2="26.427" y2="15.0178" gradientUnits="userSpaceOnUse">
<stop stop-color="#D8274D"/>
<stop offset="1" stop-color="#F22749" stop-opacity="0"/>
</linearGradient>
<linearGradient id="paint10_linear_257_549" x1="25.8766" y1="49.3311" x2="23.988" y2="32.3301" gradientUnits="userSpaceOnUse">
<stop stop-color="#A9273E"/>
<stop offset="1" stop-color="#B62738" stop-opacity="0"/>
</linearGradient>
<linearGradient id="paint11_linear_257_549" x1="48.2488" y1="-5.36873" x2="29.3595" y2="17.1042" gradientUnits="userSpaceOnUse">
<stop stop-color="#FFECB8"/>
<stop offset="1" stop-color="#FFD371" stop-opacity="0.2"/>
</linearGradient>
</defs>
</svg>
