<svg width="50" height="50" viewBox="0 0 50 50" fill="none" xmlns="http://www.w3.org/2000/svg">
<path d="M50 25C50 26.4606 49.8737 27.8937 49.632 29.2829C49.5002 30.0297 49.341 30.7654 49.1488 31.4902C48.0834 35.4656 46.0626 39.0457 43.3498 41.9778C42.3668 43.043 41.2905 44.0204 40.1318 44.899C39.0664 45.7116 37.9297 46.4419 36.738 47.0789C35.1235 47.9409 33.4047 48.6273 31.6035 49.1215C29.5003 49.698 27.2872 50 25.0027 50C23.9538 50 22.9215 49.9341 21.911 49.8078C13.4432 48.7646 6.28226 43.4823 2.62493 36.152C1.19714 33.2967 0.302037 30.134 0.0659035 26.79C0.0219716 26.197 0 25.5985 0 25C0 21.2278 0.834708 17.6532 2.32839 14.4465C3.66282 11.5803 5.52992 9.01054 7.79242 6.86361C9.88467 4.87591 12.3229 3.24511 15.0082 2.07556C18.067 0.74127 21.4497 0 24.9972 0C35.777 0 44.9643 6.81968 48.4733 16.3848C49.3465 18.7678 49.8682 21.3156 49.978 23.9787C49.9945 24.3136 50 24.6541 50 25Z" fill="url(#paint0_radial_257_214)"/>
<path d="M2.61958 36.1522C2.44934 35.8118 2.2846 35.4604 2.13084 35.109C0.994101 32.5447 0.280212 29.7608 0.0660437 26.8342C0.0660437 26.8177 0.0660384 26.8067 0.0605469 26.7903C0.565763 26.7244 1.25769 26.955 1.76291 28.3771C2.4164 30.2276 5.45868 34.7356 2.61958 36.1522Z" fill="#BCBCBC"/>
<path d="M22.2571 31.9022C22.2241 32.1054 22.1528 32.2975 22.0484 32.4732C21.2522 33.9009 18.479 34.6037 15.3873 34.0711C12.6964 33.6044 10.5493 32.3305 9.85732 30.9468C9.65414 30.5404 9.57726 30.1286 9.64865 29.7168C9.96167 27.9158 12.9875 27.482 16.4691 28.0915C19.9507 28.69 22.5701 30.1012 22.2571 31.9022Z" fill="#BCBCBC"/>
<path d="M14.8492 19.9981L14.8437 20.0036C14.1518 21.0469 11.9937 20.0915 9.48405 18.4497C7.43573 17.1099 5.97499 15.7756 5.87614 14.7598C5.85418 14.5292 5.90361 14.3096 6.02991 14.1119C6.72184 13.0576 9.46758 12.9862 11.9827 14.6335C14.4978 16.2808 15.5412 18.9439 14.8492 19.9981Z" fill="#BCBCBC"/>
<path d="M42.5483 35.3945C40.522 37.0857 38.0947 37.5195 37.1337 36.3609C37.0843 36.3005 37.0404 36.2401 37.0019 36.1742C36.2661 34.9717 37.1447 32.8138 39.0667 31.2159C41.0217 29.5851 43.3446 29.1239 44.3715 30.1287C44.4099 30.1672 44.4484 30.2056 44.4813 30.244C45.4423 31.4026 44.5802 33.7088 42.5483 35.3945Z" fill="#BCBCBC"/>
<path d="M27.9296 21.5301C25.8813 23.1499 23.8 24.0449 22.6084 22.5404C22.493 22.3976 22.3997 22.2439 22.3173 22.0792C21.5595 20.5527 22.3063 18.3399 24.1625 16.8738C26.2108 15.254 29.006 14.4907 30.9115 16.9012C30.9225 16.9177 30.939 16.9342 30.9444 16.9507C32.0647 18.4387 29.9615 19.9267 27.9296 21.5301Z" fill="#BCBCBC"/>
<path d="M19.7476 44.1524C19.451 44.4379 18.8635 44.5972 17.9409 44.5533C14.5581 44.405 10.8843 40.2868 11.9112 38.9635C11.9277 38.9416 11.9442 38.9251 11.9607 38.9086C13.026 37.7061 15.6949 39.8695 17.0568 40.5833C19.3028 41.7584 20.5329 43.4002 19.7476 44.1524Z" fill="#BCBCBC"/>
<path d="M33.0149 41.1159C33.0204 41.8956 31.9606 42.7192 30.2912 42.7906C27.2379 42.9224 25.4971 42.3349 25.0852 41.2477C25.0413 41.1324 25.0138 41.0116 24.9974 40.8798C24.8491 39.5565 27.6443 39.7816 29.116 39.7047C31.8782 39.5565 33.0094 40.3142 33.0149 41.1159Z" fill="#BCBCBC"/>
<path d="M42.2683 23.5726C41.9334 24.0722 41.2854 24.4127 40.4452 24.4127C37.7983 24.4127 34.2672 22.5018 34.712 20.7338C34.7615 20.5306 34.8384 20.3549 34.9262 20.2121C35.6072 19.114 37.326 19.6466 38.9789 19.998C42.2848 20.7008 42.9932 22.5018 42.2683 23.5726Z" fill="#BCBCBC"/>
<path d="M33.6738 10.5865C33.6409 10.5096 33.6244 10.4218 33.6134 10.3284C33.5475 9.57618 34.2889 8.478 35.7331 8.08266C36.6722 7.82459 37.9407 7.85753 38.726 8.34073C39.0719 8.55487 39.3191 8.85138 39.4124 9.25771C39.6321 10.268 34.1406 11.7561 33.6738 10.5865Z" fill="#BCBCBC"/>
<path d="M18.5831 8.24763C18.3964 8.35745 18.1767 8.32451 17.9406 8.0884C16.3206 6.46859 16.1778 3.82198 17.0565 3.38271C17.4024 3.207 17.7045 3.15209 17.9626 3.17955C19.7199 3.37722 19.5276 7.67658 18.5831 8.24763Z" fill="#BCBCBC"/>
<path d="M46.3205 17.4997C46.2052 17.5546 46.0679 17.5656 45.9196 17.5272C45.3046 17.3679 44.5029 16.4235 44.2612 15.0014C44.1239 14.1668 44.5413 13.3651 45.0849 13.1125C45.689 12.827 46.4523 13.2223 46.7598 15.0014C46.9411 16.0117 46.9136 17.2032 46.3205 17.4997Z" fill="#BCBCBC"/>
<path d="M43.3499 41.9776C41.4554 44.0257 39.2203 45.7553 36.7382 47.0732C36.4581 46.9359 36.2055 46.7327 36.1066 46.4417C36.0188 46.1836 36.0572 45.8542 36.3263 45.4369C37.3532 43.8171 38.3856 41.3187 40.736 41.1705C41.4224 41.1265 41.9661 41.2089 42.3999 41.3626C42.8172 41.5164 43.1248 41.736 43.3499 41.9776Z" fill="#BCBCBC"/>
<path d="M31.5982 49.116C29.495 49.6926 27.2819 49.9946 24.9975 49.9946C23.9486 49.9946 22.9162 49.9287 21.9058 49.8024C21.9058 49.5059 21.9607 49.1874 22.1419 48.9184C22.3176 48.6603 22.6087 48.4516 23.0864 48.3748C24.8492 48.0782 25.7333 46.9032 28.232 47.0514C29.5279 47.1283 30.434 47.7598 30.9997 48.3473C31.2797 48.6438 31.4719 48.9184 31.5982 49.116Z" fill="#BCBCBC"/>
<path d="M28.4022 3.56367C28.2759 4.18963 27.2161 4.41476 26.7054 4.17865C26.5955 4.12923 26.5132 4.05785 26.4692 3.96999C26.1727 3.38247 28.1112 2.28429 28.3803 3.23422C28.4132 3.35502 28.4187 3.46483 28.4022 3.56367Z" fill="#BCBCBC"/>
<path d="M20.7361 36.6131C20.0771 36.2837 19.5609 36.0256 19.7092 37.3489C19.8575 38.6722 20.8844 38.9687 21.7685 38.9687C22.6471 38.9687 21.3237 36.9096 20.7361 36.6131Z" fill="#9B9B9B"/>
<path d="M8.52859 35.7345C7.941 35.5862 7.941 36.6185 7.50168 37.6453C7.06236 38.6721 7.64995 39.4079 8.52859 39.4079C9.41272 39.4079 9.70376 36.0255 8.52859 35.7345Z" fill="#9B9B9B"/>
<path d="M5.88132 22.4958C5.31569 22.2378 4.70614 21.9083 4.55787 22.4958C4.4096 23.0834 5.73304 24.7032 6.4689 24.7032C7.20476 24.7032 7.49581 23.2316 5.88132 22.4958Z" fill="#9B9B9B"/>
<path d="M50.0003 24.9999C50.0003 26.4605 49.874 27.8936 49.6324 29.2828C49.4182 29.2004 49.1986 29.0522 48.9679 28.8215C47.4962 27.35 48.611 25.2634 48.9679 24.5551C49.3633 23.7644 49.7587 23.8358 49.9784 23.9731C49.9948 24.3135 50.0003 24.654 50.0003 24.9999Z" fill="#9B9B9B"/>
<path d="M34.8547 26.614C34.0035 26.5097 33.5312 27.2016 34.8547 27.7891C36.1781 28.3821 36.0298 26.7623 34.8547 26.614Z" fill="#9B9B9B"/>
<path d="M3.23482 19.9976C2.83944 20.1953 2.79551 21.0244 3.82241 20.8817C4.84932 20.7334 4.11346 19.5584 3.23482 19.9976Z" fill="#9B9B9B"/>
<path d="M24.1187 9.70755C23.6794 9.85581 23.0918 10.2951 24.1187 10.4433C25.1456 10.5861 24.5581 9.5593 24.1187 9.70755Z" fill="#9B9B9B"/>
<path d="M26.6173 9.7078C26.0791 9.39482 26.0297 10.8829 26.469 11.4704C26.9083 12.0579 28.3801 10.7346 26.6173 9.7078Z" fill="#9B9B9B"/>
<path d="M31.3234 44.5582C31.0049 44.6296 30.8841 45.1458 31.7627 45.4423C32.6468 45.7333 32.6469 44.2617 31.3234 44.5582Z" fill="#9B9B9B"/>
<path d="M18.5286 47.0565C18.0893 47.2047 17.6445 47.4957 18.5286 47.7922C19.4128 48.0832 18.968 46.9082 18.5286 47.0565Z" fill="#9B9B9B"/>
<path d="M19.2643 25.4392C18.5175 25.4777 20.1484 26.466 20.5877 26.6143C21.0271 26.7625 22.3505 25.291 19.2643 25.4392Z" fill="#9B9B9B"/>
<path d="M43.3831 21.6172C43.0152 21.9027 43.6796 23.528 44.2672 23.3798C44.8548 23.2315 44.7065 20.5849 43.3831 21.6172Z" fill="#9B9B9B"/>
<path d="M31.5542 31.9243C31.4883 32.1769 31.406 32.424 31.3236 32.6436C30.8953 33.7912 28.3637 34.2414 27.6937 33.7143C27.6772 33.7033 27.6608 33.6869 27.6443 33.6704C27.0567 33.0829 27.6278 31.6058 27.9408 30.8755C28.3802 29.8487 30.5877 29.113 31.3236 29.404C31.9167 29.6511 31.8398 30.8536 31.5542 31.9243Z" fill="#BCBCBC"/>
<path d="M5.87614 14.7652C5.85418 14.5346 5.90361 14.3149 6.02991 14.1173C6.72184 13.063 9.46758 12.9916 11.9827 14.6389C14.4978 16.2862 15.5412 18.9492 14.8492 20.0035L14.8437 20.009C14.8822 19.3665 14.6131 18.466 13.6741 17.2086C11.2249 13.9415 6.76027 12.8159 5.87614 14.7652Z" fill="#9B9B9B"/>
<path d="M22.2571 31.9023C22.2241 32.1055 22.1528 32.2977 22.0484 32.4734C21.988 32.2208 21.4444 30.2386 18.9677 29.4094C16.3977 28.5529 12.938 27.7896 10.8787 29.4094C10.2198 29.9256 9.9397 30.4582 9.85732 30.9414C9.65414 30.5351 9.57726 30.1233 9.64865 29.7114C9.96167 27.9104 12.9875 27.4767 16.4691 28.0861C19.9507 28.6901 22.5701 30.1013 22.2571 31.9023Z" fill="#9B9B9B"/>
<path d="M26.3206 16.4675C23.5859 17.4119 22.4326 20.0915 22.3173 22.0792C21.5595 20.5527 22.3063 18.3399 24.1625 16.8738C26.2108 15.254 29.006 14.4907 30.9115 16.9012C30.9225 16.9177 30.939 16.9342 30.9444 16.9507C30.1207 16.3137 28.6215 15.6768 26.3206 16.4675Z" fill="#9B9B9B"/>
<path d="M31.5541 31.9243C31.5266 30.8591 31.263 29.6566 30.1483 29.997C29.006 30.3484 27.7101 32.4185 27.6991 33.7143C27.6826 33.7033 27.6661 33.6869 27.6497 33.6704C27.0621 33.0829 27.6332 31.6058 27.9462 30.8755C28.3855 29.8487 30.5931 29.113 31.329 29.404C31.9165 29.6511 31.8397 30.8536 31.5541 31.9243Z" fill="#9B9B9B"/>
<path d="M42.268 23.5726C42.603 21.6343 39.4948 21.0083 37.9407 20.4427C36.4031 19.8827 35.3487 20.0804 34.9204 20.2121C35.6014 19.114 37.3202 19.6466 38.9731 19.998C42.2845 20.7008 42.9929 22.5018 42.268 23.5726Z" fill="#9B9B9B"/>
<path d="M33.6737 10.5865C33.6407 10.5096 33.6243 10.4217 33.6133 10.3284C34.5413 10.9434 36.9192 10.4437 38.2316 9.85069C39.1707 9.4224 39.0169 8.79644 38.7258 8.34619C39.0718 8.56034 39.3189 8.85684 39.4123 9.26317C39.6319 10.268 34.1405 11.756 33.6737 10.5865Z" fill="#9B9B9B"/>
<path d="M18.5831 8.24763C18.3964 8.35745 18.1767 8.32451 17.9406 8.0884C16.3206 6.46859 16.1778 3.82198 17.0565 3.38271C17.4024 3.207 17.7045 3.15209 17.9626 3.17955C17.6056 3.24544 17.0565 3.55842 17.0565 4.85427C17.0565 6.34779 17.7759 7.57226 18.5831 8.24763Z" fill="#9B9B9B"/>
<path d="M28.4022 3.56367C28.3528 3.31109 28.1551 3.06949 27.5016 3.23422C26.969 3.366 26.7658 3.77232 26.7054 4.17865C26.5955 4.12923 26.5132 4.05785 26.4692 3.96999C26.1727 3.38247 28.1112 2.28429 28.3803 3.23422C28.4132 3.35502 28.4187 3.46483 28.4022 3.56367Z" fill="#9B9B9B"/>
<path d="M19.7474 44.1524C19.6211 43.3617 18.8962 42.593 17.6441 41.9066C16.0241 41.0226 14.849 40.1441 13.8221 39.4083C13.2839 39.0239 12.5425 38.9196 11.9604 38.9086C13.0258 37.7061 15.6947 39.8695 17.0565 40.5833C19.3026 41.7584 20.5327 43.4002 19.7474 44.1524Z" fill="#9B9B9B"/>
<path d="M33.0149 41.1157C32.7788 40.5282 32.0649 40.2866 30.8788 40.2866H26.7601C25.1841 40.2866 25.0852 41.1981 25.0852 41.242C25.0413 41.1267 25.0138 41.0059 24.9974 40.8741C24.8491 39.5508 27.6443 39.7759 29.116 39.6991C31.8782 39.5563 33.0094 40.314 33.0149 41.1157Z" fill="#9B9B9B"/>
<path d="M30.9997 48.353C31.2797 48.6386 31.4719 48.9186 31.5982 49.1163C29.495 49.6928 27.2819 49.9948 24.9975 49.9948C23.9486 49.9948 22.9162 49.9289 21.9058 49.8026C21.9058 49.5061 21.9607 49.1876 22.1419 48.9186C27.0293 50.0717 29.8465 49.001 30.9997 48.353Z" fill="#9B9B9B"/>
<path d="M43.3497 41.9781C41.4552 44.0262 39.2201 45.7559 36.738 47.0737C36.4579 46.9364 36.2053 46.7332 36.1064 46.4422C40.2086 44.9048 41.9823 42.1209 42.3997 41.3687C42.817 41.5169 43.1246 41.7365 43.3497 41.9781Z" fill="#9B9B9B"/>
<path d="M44.3715 30.1284C44.042 30.0131 41.6971 29.3597 38.9679 32.4949C37.5895 34.0818 37.1117 35.3118 37.0019 36.1738C36.2661 34.9713 37.1447 32.8134 39.0667 31.2156C41.0217 29.5903 43.3446 29.1235 44.3715 30.1284Z" fill="#9B9B9B"/>
<path d="M45.9196 17.5216C45.3046 17.3624 44.5029 16.4179 44.2612 14.9958C44.1239 14.1612 44.5413 13.3595 45.0849 13.1069C44.8488 13.4199 44.6291 13.8976 44.7005 14.5565C44.8268 15.6218 45.2277 16.687 45.9196 17.5216Z" fill="#9B9B9B"/>
<path d="M2.61958 36.1522C2.44934 35.8118 2.2846 35.4604 2.13084 35.109C2.83375 34.472 3.52568 33.3079 2.64704 31.4685C1.55973 29.1898 1.03254 27.2295 0.0660437 26.8342C0.0660437 26.8177 0.0660384 26.8067 0.0605469 26.7903C0.565763 26.7244 1.25769 26.955 1.76291 28.3771C2.4164 30.2276 5.45868 34.7356 2.61958 36.1522Z" fill="#9B9B9B"/>
<path opacity="0.45" d="M40.1318 44.8991C39.0664 45.7118 37.9297 46.4421 36.738 47.079C35.1235 47.9411 33.4047 48.6274 31.6035 49.1216C29.5003 49.6982 27.2872 50.0002 25.0027 50.0002C23.9538 50.0002 22.9215 49.9343 21.911 49.808C13.4432 48.7647 6.28226 43.4825 2.62493 36.1522C1.19714 33.2969 0.302037 30.1341 0.0659035 26.7902C0.0219716 26.1972 0 25.5987 0 25.0002C0 21.2279 0.834708 17.6534 2.32839 14.4467C3.66282 11.5804 5.52992 9.01071 7.79242 6.86377C0.818232 40.1221 26.469 44.7289 40.1318 44.8991Z" fill="url(#paint1_linear_257_214)"/>
<path d="M50 25C50 26.4606 49.8737 27.8937 49.6321 29.2829C49.5003 30.0297 49.341 30.7654 49.1488 31.4902C48.2812 11.3826 34.6623 -0.0494175 15.0083 2.07556C18.0671 0.74127 21.4498 0 24.9973 0C35.7771 0 44.9643 6.81968 48.4734 16.3848C49.3465 18.7678 49.8682 21.3156 49.9781 23.9787C49.9945 24.3136 50 24.6541 50 25Z" fill="url(#paint2_linear_257_214)"/>
<defs>
<radialGradient id="paint0_radial_257_214" cx="0" cy="0" r="1" gradientUnits="userSpaceOnUse" gradientTransform="translate(23.8958 11.7646) scale(38.1772 38.173)">
<stop stop-color="#E8E8E8"/>
<stop offset="1" stop-color="#DFDFDF"/>
</radialGradient>
<linearGradient id="paint1_linear_257_214" x1="20.1678" y1="61.1578" x2="19.9239" y2="-0.796895" gradientUnits="userSpaceOnUse">
<stop/>
<stop offset="1" stop-opacity="0.2"/>
</linearGradient>
<linearGradient id="paint2_linear_257_214" x1="47.2373" y1="-0.0110349" x2="32.0283" y2="16.8421" gradientUnits="userSpaceOnUse">
<stop stop-color="#B7B7B7"/>
<stop offset="0.557292" stop-color="#AEAEAE" stop-opacity="0.2"/>
</linearGradient>
</defs>
</svg>
