<svg width="50" height="50" viewBox="0 0 50 50" fill="none" xmlns="http://www.w3.org/2000/svg">
<path d="M25.0109 50C15.5878 50 7.37827 44.7762 3.12827 37.0625C-6.24797 20.0547 6.68478 -0.591922 25.5638 0.0129864C37.5734 0.256825 47.7181 9.11475 49.6534 20.8941C52.193 36.0965 40.4552 50 25.0109 50Z" fill="url(#paint0_radial_257_185)"/>
<g opacity="0.75">
<path d="M34.9307 29.0441C33.8951 28.7862 33.6093 30.0758 34.195 30.3665C34.7808 30.6619 36.2521 31.5435 36.5473 30.9527C36.8425 30.3665 36.1068 29.3396 34.9307 29.0441Z" fill="#8E3316"/>
<path d="M45.2162 18.1652C44.2135 18.395 43.0139 18.9014 44.0401 19.6376C45.0709 20.3738 46.6828 20.0784 46.8328 19.1968C46.978 18.3106 47.128 17.7244 45.2162 18.1652Z" fill="#8E3316"/>
<path d="M25.0854 41.8361C22.93 40.5419 19.7952 40.073 19.5 41.3953C19.2048 42.7177 21.2618 44.7763 23.7593 44.4808C26.2615 44.1901 26.5567 42.7177 25.0854 41.8361Z" fill="#8E3316"/>
<path d="M32.1146 48.9731C30.17 49.5498 28.127 49.8968 26.0137 49.9766C26.4963 46.9145 29.4062 47.8805 30.9618 48.3025C31.4164 48.4291 31.7959 48.6777 32.1146 48.9731Z" fill="#8E3316"/>
<path d="M11.4218 41.691C12.3731 42.1084 13.0384 40.0733 11.7171 38.3101C10.3957 36.547 9.80526 34.3384 8.18867 33.8976C6.57207 33.4568 5.69114 39.1917 11.4218 41.691Z" fill="#8E3316"/>
<path d="M4.95581 34.4836C4.43569 34.5774 4.22014 35.6606 5.39627 35.806C6.5724 35.956 6.5724 34.1929 4.95581 34.4836Z" fill="#8E3316"/>
<path d="M18.034 28.4578C16.9985 28.364 15.977 28.8985 16.1223 30.0755C16.2675 31.2525 17.8841 30.0755 18.6198 30.0755C19.3554 30.0755 19.6506 28.6031 18.034 28.4578Z" fill="#8E3316"/>
<path d="M28.1735 14.7842C27.2832 14.3622 27.1427 16.2566 27.8783 16.5473C28.614 16.8427 30.671 15.9565 28.1735 14.7842Z" fill="#8E3316"/>
</g>
<path d="M18.7694 24.3405C13.7743 25.2221 13.0387 25.3675 8.48411 29.1939C5.47116 31.7214 2.327 30.9054 0.546407 30.0614C0.213717 28.4295 0.0356445 26.7367 0.0356445 25.0017C0.0356445 17.8929 3.00175 11.4733 7.7625 6.9248C8.74183 7.50627 9.75395 8.29406 10.5412 9.34444C12.7435 12.2846 12.303 13.4616 18.7694 16.8425C25.2311 20.2234 23.7644 23.459 18.7694 24.3405Z" fill="url(#paint1_linear_257_185)"/>
<path d="M47.5868 14.2913C42.976 13.3253 39.8319 18.5444 36.6924 18.1646C33.0188 17.7238 34.0496 12.2843 30.9617 6.5494C29.4154 3.67961 29.3076 1.69138 29.5841 0.425293C37.5639 1.89771 44.2084 7.16838 47.5868 14.2913Z" fill="url(#paint2_linear_257_185)"/>
<path d="M49.9911 25.0016C49.9911 34.7035 44.4712 43.1113 36.4023 47.2566C34.5608 44.3446 37.5457 42.1828 41.1022 39.9273C45.5115 37.1325 41.3974 35.9556 42.1284 31.3976C42.864 26.8397 40.0713 26.5443 41.3927 22.7226C42.3345 19.9935 47.2452 22.5819 49.977 24.2888C49.9864 24.5233 49.9911 24.7624 49.9911 25.0016Z" fill="url(#paint3_linear_257_185)"/>
<path d="M26.5574 32.5749C23.8865 33.4049 22.4433 30.2209 19.0648 30.9571C15.6864 31.6933 12.8936 37.719 17.4482 37.5736C22.0028 37.4282 23.1789 36.8374 26.5574 39.1914C29.9358 41.5454 33.9047 39.9276 35.0808 36.2513C36.2522 32.5749 35.5166 29.7801 26.5574 32.5749Z" fill="url(#paint4_linear_257_185)"/>
<path d="M32.1377 21.5456C30.732 21.9958 30.3758 22.7226 30.8163 23.6042C31.2568 24.4858 33.0186 24.3404 33.8996 25.6627C34.7805 26.9851 36.9875 28.6029 37.5732 25.6627C38.1636 22.7226 35.3709 20.514 32.1377 21.5456Z" fill="url(#paint5_linear_257_185)"/>
<path opacity="0.5" d="M26.9975 13.8975C26.7351 15.8576 24.9404 13.8975 22.0024 13.3114C19.0645 12.7252 17.8883 10.9574 19.2097 9.78041C20.5311 8.60342 22.293 7.72185 24.0595 8.74878C25.8214 9.78041 27.288 11.6936 26.9975 13.8975Z" fill="#8E3316"/>
<path d="M23.9094 2.28237C20.2358 2.28237 18.4739 4.34094 15.0955 5.51793C13.0806 6.21662 11.4874 5.40539 10.5269 4.63636C14.6129 1.71967 19.6126 0.00341797 25.0153 0.00341797C25.2027 0.00341797 25.3855 0.00341282 25.5682 0.0127912C25.8259 1.07255 25.7322 2.28237 23.9094 2.28237Z" fill="url(#paint6_linear_257_185)"/>
<path opacity="0.45" d="M48.8005 32.6499C46.7622 39.0038 42.2498 44.251 36.4019 47.2568C35.0384 47.9555 33.6046 48.5322 32.1145 48.9777C30.1699 49.5545 28.1269 49.9015 26.0136 49.9812C25.6809 49.9953 25.3482 50 25.0108 50C15.5877 50 7.37826 44.7762 3.12826 37.0624C1.93807 34.9054 1.05716 32.5514 0.546407 30.0614C0.213717 28.4296 0.0356445 26.7368 0.0356445 25.0018C0.0356445 21.9819 0.569828 19.0887 1.54916 16.4111C4.37468 24.8564 10.8411 35.7541 25.5403 37.7752C28.408 38.1691 31.0883 38.2207 33.5905 38.005C39.7288 37.4657 44.7801 35.318 48.8005 32.6499Z" fill="url(#paint7_linear_257_185)"/>
<path opacity="0.45" d="M49.9904 25.002C49.9904 27.6701 49.5733 30.2398 48.8002 32.6501C46.7619 39.0039 42.2495 44.2512 36.4016 47.257C35.0381 47.9557 33.6042 48.5324 32.1141 48.9779C30.1696 49.5547 28.1265 49.9017 26.0133 49.9814C25.6806 49.9955 25.3479 50.0002 25.0105 50.0002C15.5874 50.0002 7.37793 44.7764 3.12793 37.0626C7.44822 38.8398 12.5932 40.0543 18.6941 40.2935C24.6122 40.5279 29.5229 39.6135 33.5902 38.0005C42.3338 34.5398 47.207 27.8436 49.8498 22.3291C49.9201 22.9715 49.9623 23.628 49.981 24.2845C49.9857 24.5237 49.9904 24.7628 49.9904 25.002Z" fill="url(#paint8_linear_257_185)"/>
<path d="M49.658 20.9079C49.658 20.9079 46.1015 7.87186 29.7481 3.58123C19.9455 1.00685 13.1417 3.32801 9.2666 5.59759C21.6417 -4.51235 40.5676 -0.49839 47.5869 14.2914C49.2175 17.7192 49.5409 20.4296 49.658 20.9079Z" fill="url(#paint9_linear_257_185)"/>
<defs>
<radialGradient id="paint0_radial_257_185" cx="0" cy="0" r="1" gradientUnits="userSpaceOnUse" gradientTransform="translate(26.2509 15.2193) scale(30.3143 30.3365)">
<stop stop-color="#E57E33"/>
<stop offset="1" stop-color="#C64F1C"/>
</radialGradient>
<linearGradient id="paint1_linear_257_185" x1="8.59909" y1="-13.5379" x2="14.3375" y2="58.3597" gradientUnits="userSpaceOnUse">
<stop stop-color="#F29036"/>
<stop offset="1" stop-color="#F29C36" stop-opacity="0"/>
</linearGradient>
<linearGradient id="paint2_linear_257_185" x1="36.6282" y1="-15.7753" x2="42.3667" y2="56.1224" gradientUnits="userSpaceOnUse">
<stop stop-color="#F26336"/>
<stop offset="1" stop-color="#F2C936" stop-opacity="0"/>
</linearGradient>
<linearGradient id="paint3_linear_257_185" x1="38.8542" y1="-15.9529" x2="44.5927" y2="55.9447" gradientUnits="userSpaceOnUse">
<stop stop-color="#F27A36"/>
<stop offset="1" stop-color="#F27A36" stop-opacity="0"/>
</linearGradient>
<linearGradient id="paint4_linear_257_185" x1="21.3517" y1="-14.5556" x2="27.0901" y2="57.3421" gradientUnits="userSpaceOnUse">
<stop stop-color="#F28536"/>
<stop offset="1" stop-color="#F27A36" stop-opacity="0"/>
</linearGradient>
<linearGradient id="paint5_linear_257_185" x1="31.0231" y1="-15.3279" x2="36.7616" y2="56.5699" gradientUnits="userSpaceOnUse">
<stop stop-color="#F29C36"/>
<stop offset="1" stop-color="#F27A36" stop-opacity="0"/>
</linearGradient>
<linearGradient id="paint6_linear_257_185" x1="16.7556" y1="-14.1891" x2="22.4941" y2="57.7086" gradientUnits="userSpaceOnUse">
<stop stop-color="#F27A36"/>
<stop offset="1" stop-color="#F27A36" stop-opacity="0"/>
</linearGradient>
<linearGradient id="paint7_linear_257_185" x1="21.214" y1="57.3633" x2="24.966" y2="23.1791" gradientUnits="userSpaceOnUse">
<stop stop-color="#8E2416"/>
<stop offset="1" stop-color="#8E3316" stop-opacity="0.3"/>
</linearGradient>
<linearGradient id="paint8_linear_257_185" x1="23.7327" y1="55.8939" x2="27.9261" y2="20.166" gradientUnits="userSpaceOnUse">
<stop stop-color="#6F1B16"/>
<stop offset="1" stop-color="#653216" stop-opacity="0.3"/>
</linearGradient>
<linearGradient id="paint9_linear_257_185" x1="43.1518" y1="-13.764" x2="27.4118" y2="17.2519" gradientUnits="userSpaceOnUse">
<stop stop-color="#FFC7B5"/>
<stop offset="1" stop-color="#FFC1B3" stop-opacity="0"/>
</linearGradient>
</defs>
</svg>
